<?xml version="1.0" encoding="UTF-8"?>
<svg version="1.1" xmlns="http://www.w3.org/2000/svg" width="496" height="496">
<path d="M0 0 C9.19058053 -0.28411741 18.7790721 1.05096401 27.56640625 3.84765625 C30.1411355 4.28497757 31.88266558 3.55535399 34.34375 2.72265625 C56.82984721 -3.76142998 82.66731888 5.46636742 102.40625 16.16015625 C111.31161396 21.44996299 120.99963949 27.57990749 127.40625 35.84765625 C129.68953041 38.70015783 131.76617356 39.97864234 135.09375 41.47265625 C142.69506388 44.92779892 149.8276898 51.13365298 154.40625 58.16015625 C154.40625 58.82015625 154.40625 59.48015625 154.40625 60.16015625 C155.06625 60.16015625 155.72625 60.16015625 156.40625 60.16015625 C157.52670803 61.28061428 158.64410206 62.40423118 159.75 63.5390625 C168.94050452 72.53448556 179.08643342 77.72856138 191.40625 81.22265625 C196.44800752 82.71018809 199.5669815 83.63835826 202.40625 88.16015625 C202.94717056 91.94660019 202.78688272 94.27201323 201.28125 97.78515625 C197.47321933 102.60866177 193.95152251 105.61586939 187.83984375 106.890625 C182.71138844 107.45862406 177.55640044 107.30147135 172.40625 107.16015625 C172.56351562 107.70285156 172.72078125 108.24554688 172.8828125 108.8046875 C173.48355635 111.50803482 173.63250823 114.08176757 173.78125 116.84765625 C174.35244669 125.06914298 175.86690402 133.07616951 177.40625 141.16015625 C178.06109375 140.88300781 178.7159375 140.60585937 179.390625 140.3203125 C184.67322521 138.22368728 189.13855899 136.96059263 194.84375 136.78515625 C198.77366097 136.71421008 198.77366097 136.71421008 201.98046875 134.7734375 C203.1786625 132.93825146 203.1786625 132.93825146 204.40625 130.16015625 C205.06625 130.16015625 205.72625 130.16015625 206.40625 130.16015625 C206.73625 129.17015625 207.06625 128.18015625 207.40625 127.16015625 C208.72625 127.16015625 210.04625 127.16015625 211.40625 127.16015625 C210.89472632 130.94543146 210.19779158 132.60124313 207.40625 135.16015625 C207.07625 136.15015625 206.74625 137.14015625 206.40625 138.16015625 C207.355 138.20140625 208.30375 138.24265625 209.28125 138.28515625 C217.80421445 139.55929639 224.39272259 145.45662629 229.71875 151.8671875 C236.97584525 161.72810165 238.24799986 172.14485583 237.40625 184.16015625 C235.65661311 195.31011495 229.14689458 204.90424334 220.11328125 211.5 C209.67879558 217.8992156 199.22566776 217.63293296 187.40625 217.16015625 C187.28121094 217.87171875 187.15617187 218.58328125 187.02734375 219.31640625 C184.21622254 232.18745178 176.546209 243.11926776 166.34375 251.22265625 C162.34936417 254.99357994 161.89560091 258.05609739 161.64086914 263.31274414 C161.59408701 265.9536315 161.58384843 268.59312739 161.57421875 271.234375 C161.49436727 278.0662581 159.44251748 284.08762128 156.40625 290.16015625 C155.74625 290.16015625 155.08625 290.16015625 154.40625 290.16015625 C154.40625 290.82015625 154.40625 291.48015625 154.40625 292.16015625 C153.49875 292.53140625 152.59125 292.90265625 151.65625 293.28515625 C148.27141362 294.90405762 148.27141362 294.90405762 146.65625 297.91015625 C141.77370623 304.96271947 133.76952233 309.53109634 125.40625 311.16015625 C119.42628859 312.01618345 113.42076829 312.6086632 107.40625 313.16015625 C107.90382813 314.37960937 108.40140625 315.5990625 108.9140625 316.85546875 C110.12888084 320.10213874 110.76577422 322.54409713 110.28125 326.03515625 C110.19617188 326.77507812 110.11109375 327.515 110.0234375 328.27734375 C109.40625 330.16015625 109.40625 330.16015625 106.40625 332.16015625 C98.79264788 333.24962344 92.10394602 331.83546428 85.40625 328.16015625 C84.63885498 327.53959351 84.63885498 327.53959351 83.85595703 326.90649414 C79.07911749 323.04827759 75.81848478 322.57173344 69.78125 322.97265625 C62.99235812 323.21892887 56.80208983 322.83932422 50.10546875 321.5 C47.4684358 321.02012972 47.4684358 321.02012972 45.14526367 321.62841797 C39.53290552 322.71797284 33.73202913 322.35227989 28.03125 322.34765625 C27.35429077 322.34904602 26.67733154 322.35043579 25.9798584 322.35186768 C17.24752452 322.36094495 8.90602843 321.91113318 0.28515625 320.47265625 C-3.37746848 320.07508504 -6.22109106 320.71211125 -9.7421875 321.671875 C-12.96939827 322.22447958 -15.88776135 322.09697385 -19.14624023 321.94921875 C-27.38319373 321.59845893 -32.51062721 322.09414698 -39.234375 327.43359375 C-43.60432682 330.6314724 -47.94709567 331.43991443 -53.28125 331.41015625 C-54.21324219 331.4153125 -55.14523438 331.42046875 -56.10546875 331.42578125 C-58.59375 331.16015625 -58.59375 331.16015625 -61.59375 329.16015625 C-62.2109375 327.27734375 -62.2109375 327.27734375 -62.46875 325.03515625 C-62.56929687 324.31070312 -62.66984375 323.58625 -62.7734375 322.83984375 C-62.51072706 318.92203158 -61.07514915 315.7907355 -59.59375 312.16015625 C-61.35138672 312.01320313 -61.35138672 312.01320313 -63.14453125 311.86328125 C-76.40612171 310.64946066 -87.64528019 308.80452436 -97.59375 299.16015625 C-98.59943242 297.49691224 -99.60039799 295.83079372 -100.59375 294.16015625 C-102.35573659 293.23110877 -104.11787416 292.3023339 -105.8828125 291.37890625 C-109.06033346 289.11546666 -110.30628647 285.74186759 -111.59375 282.16015625 C-112.15642578 280.61714844 -112.15642578 280.61714844 -112.73046875 279.04296875 C-113.63858395 274.9585049 -113.53723505 271.71849821 -113.25952148 267.5859375 C-112.61704034 258.93705733 -112.61704034 258.93705733 -115.49609375 251.0234375 C-118.00769802 248.61974807 -118.00769802 248.61974807 -120.78515625 246.47265625 C-128.5033803 240.11773464 -133.56040712 230.55715551 -136.59375 221.16015625 C-137.728125 221.49015625 -138.8625 221.82015625 -140.03125 222.16015625 C-152.56198225 224.88766579 -165.90400134 224.30306872 -177.08203125 217.6875 C-185.38048746 211.78792525 -191.75376128 202.82025115 -194.14453125 192.8671875 C-195.9852128 181.77508039 -194.92027412 170.29249552 -189.015625 160.55859375 C-183.36415203 152.9469252 -176.76007883 147.04051836 -167.59375 144.16015625 C-166.27375 144.16015625 -164.95375 144.16015625 -163.59375 144.16015625 C-165.11581009 141.53114337 -166.43740964 139.31649661 -168.59375 137.16015625 C-168.59375 135.84015625 -168.59375 134.52015625 -168.59375 133.16015625 C-166.94375 133.49015625 -165.29375 133.82015625 -163.59375 134.16015625 C-163.59375 134.82015625 -163.59375 135.48015625 -163.59375 136.16015625 C-162.60375 136.49015625 -161.61375 136.82015625 -160.59375 137.16015625 C-160.20574219 137.97871094 -159.81773437 138.79726562 -159.41796875 139.640625 C-157.7157813 142.56429857 -157.7157813 142.56429857 -153.80078125 143.0859375 C-152.33817602 143.23815433 -150.87290634 143.36633968 -149.40625 143.47265625 C-148.65666016 143.54548828 -147.90707031 143.61832031 -147.13476562 143.69335938 C-145.28962013 143.86964716 -143.44181305 144.01767038 -141.59375 144.16015625 C-141.62855469 143.2165625 -141.66335937 142.27296875 -141.69921875 141.30078125 C-141.93154894 130.2816923 -141.60278007 119.13063113 -134.03125 110.34765625 C-132.59375 109.16015625 -132.59375 109.16015625 -130.59375 109.16015625 C-130.26375 106.85015625 -129.93375 104.54015625 -129.59375 102.16015625 C-130.893125 102.22203125 -132.1925 102.28390625 -133.53125 102.34765625 C-141.51046494 102.31007753 -147.342379 99.93915269 -153.28125 94.66015625 C-155.40812585 92.22944099 -155.6176648 89.94492301 -155.96875 86.78515625 C-155.48074236 82.06774909 -154.23623842 81.12793503 -150.59375 78.16015625 C-147.7945023 76.90102831 -144.91609505 76.06567617 -141.96875 75.22265625 C-131.12419128 71.84745807 -122.16352965 67.87184913 -114.59375 59.16015625 C-114.03300781 58.51949219 -113.47226563 57.87882812 -112.89453125 57.21875 C-111.72473574 55.87545673 -110.55547446 54.53169807 -109.38671875 53.1875 C-96.04927076 38.10659475 -78.88179884 25.4202544 -58.59375 22.16015625 C-57.90369873 22.12607666 -57.21364746 22.09199707 -56.50268555 22.05688477 C-50.30889339 21.68271896 -47.00050226 19.8890269 -42.28125 15.97265625 C-29.47442378 6.01661508 -16.18641542 0.9994624 0 0 Z " fill="#F8F4EA" transform="translate(228.59375,88.83984375)"/>
<path d="M0 0 C9.19058053 -0.28411741 18.7790721 1.05096401 27.56640625 3.84765625 C30.1411355 4.28497757 31.88266558 3.55535399 34.34375 2.72265625 C56.82984721 -3.76142998 82.66731888 5.46636742 102.40625 16.16015625 C111.31161396 21.44996299 120.99963949 27.57990749 127.40625 35.84765625 C129.68953041 38.70015783 131.76617356 39.97864234 135.09375 41.47265625 C142.69506388 44.92779892 149.8276898 51.13365298 154.40625 58.16015625 C154.40625 58.82015625 154.40625 59.48015625 154.40625 60.16015625 C155.06625 60.16015625 155.72625 60.16015625 156.40625 60.16015625 C157.52670803 61.28061428 158.64410206 62.40423118 159.75 63.5390625 C168.94050452 72.53448556 179.08643342 77.72856138 191.40625 81.22265625 C196.44800752 82.71018809 199.5669815 83.63835826 202.40625 88.16015625 C202.94717056 91.94660019 202.78688272 94.27201323 201.28125 97.78515625 C197.47321933 102.60866177 193.95152251 105.61586939 187.83984375 106.890625 C182.71138844 107.45862406 177.55640044 107.30147135 172.40625 107.16015625 C172.56351562 107.70285156 172.72078125 108.24554688 172.8828125 108.8046875 C173.48355635 111.50803482 173.63250823 114.08176757 173.78125 116.84765625 C174.35244669 125.06914298 175.86690402 133.07616951 177.40625 141.16015625 C178.06109375 140.88300781 178.7159375 140.60585937 179.390625 140.3203125 C184.67322521 138.22368728 189.13855899 136.96059263 194.84375 136.78515625 C198.77366097 136.71421008 198.77366097 136.71421008 201.98046875 134.7734375 C203.1786625 132.93825146 203.1786625 132.93825146 204.40625 130.16015625 C205.06625 130.16015625 205.72625 130.16015625 206.40625 130.16015625 C206.73625 129.17015625 207.06625 128.18015625 207.40625 127.16015625 C208.72625 127.16015625 210.04625 127.16015625 211.40625 127.16015625 C210.89472632 130.94543146 210.19779158 132.60124313 207.40625 135.16015625 C207.07625 136.15015625 206.74625 137.14015625 206.40625 138.16015625 C207.355 138.20140625 208.30375 138.24265625 209.28125 138.28515625 C217.80421445 139.55929639 224.39272259 145.45662629 229.71875 151.8671875 C236.97584525 161.72810165 238.24799986 172.14485583 237.40625 184.16015625 C235.65661311 195.31011495 229.14689458 204.90424334 220.11328125 211.5 C209.67879558 217.8992156 199.22566776 217.63293296 187.40625 217.16015625 C187.28121094 217.87171875 187.15617187 218.58328125 187.02734375 219.31640625 C184.21622254 232.18745178 176.546209 243.11926776 166.34375 251.22265625 C162.34936417 254.99357994 161.89560091 258.05609739 161.64086914 263.31274414 C161.59408701 265.9536315 161.58384843 268.59312739 161.57421875 271.234375 C161.49436727 278.0662581 159.44251748 284.08762128 156.40625 290.16015625 C155.74625 290.16015625 155.08625 290.16015625 154.40625 290.16015625 C154.40625 290.82015625 154.40625 291.48015625 154.40625 292.16015625 C153.49875 292.53140625 152.59125 292.90265625 151.65625 293.28515625 C148.27141362 294.90405762 148.27141362 294.90405762 146.65625 297.91015625 C141.77370623 304.96271947 133.76952233 309.53109634 125.40625 311.16015625 C119.42628859 312.01618345 113.42076829 312.6086632 107.40625 313.16015625 C107.90382813 314.37960937 108.40140625 315.5990625 108.9140625 316.85546875 C110.12888084 320.10213874 110.76577422 322.54409713 110.28125 326.03515625 C110.19617188 326.77507812 110.11109375 327.515 110.0234375 328.27734375 C109.40625 330.16015625 109.40625 330.16015625 106.40625 332.16015625 C98.79264788 333.24962344 92.10394602 331.83546428 85.40625 328.16015625 C84.63885498 327.53959351 84.63885498 327.53959351 83.85595703 326.90649414 C79.07911749 323.04827759 75.81848478 322.57173344 69.78125 322.97265625 C62.99235812 323.21892887 56.80208983 322.83932422 50.10546875 321.5 C47.4684358 321.02012972 47.4684358 321.02012972 45.14526367 321.62841797 C39.53290552 322.71797284 33.73202913 322.35227989 28.03125 322.34765625 C27.35429077 322.34904602 26.67733154 322.35043579 25.9798584 322.35186768 C17.24752452 322.36094495 8.90602843 321.91113318 0.28515625 320.47265625 C-3.37746848 320.07508504 -6.22109106 320.71211125 -9.7421875 321.671875 C-12.96939827 322.22447958 -15.88776135 322.09697385 -19.14624023 321.94921875 C-27.38319373 321.59845893 -32.51062721 322.09414698 -39.234375 327.43359375 C-43.60432682 330.6314724 -47.94709567 331.43991443 -53.28125 331.41015625 C-54.21324219 331.4153125 -55.14523438 331.42046875 -56.10546875 331.42578125 C-58.59375 331.16015625 -58.59375 331.16015625 -61.59375 329.16015625 C-62.2109375 327.27734375 -62.2109375 327.27734375 -62.46875 325.03515625 C-62.56929687 324.31070312 -62.66984375 323.58625 -62.7734375 322.83984375 C-62.51072706 318.92203158 -61.07514915 315.7907355 -59.59375 312.16015625 C-61.35138672 312.01320313 -61.35138672 312.01320313 -63.14453125 311.86328125 C-76.40612171 310.64946066 -87.64528019 308.80452436 -97.59375 299.16015625 C-98.59943242 297.49691224 -99.60039799 295.83079372 -100.59375 294.16015625 C-102.35573659 293.23110877 -104.11787416 292.3023339 -105.8828125 291.37890625 C-109.06033346 289.11546666 -110.30628647 285.74186759 -111.59375 282.16015625 C-112.15642578 280.61714844 -112.15642578 280.61714844 -112.73046875 279.04296875 C-113.63858395 274.9585049 -113.53723505 271.71849821 -113.25952148 267.5859375 C-112.61704034 258.93705733 -112.61704034 258.93705733 -115.49609375 251.0234375 C-118.00769802 248.61974807 -118.00769802 248.61974807 -120.78515625 246.47265625 C-128.5033803 240.11773464 -133.56040712 230.55715551 -136.59375 221.16015625 C-137.728125 221.49015625 -138.8625 221.82015625 -140.03125 222.16015625 C-152.56198225 224.88766579 -165.90400134 224.30306872 -177.08203125 217.6875 C-185.38048746 211.78792525 -191.75376128 202.82025115 -194.14453125 192.8671875 C-195.9852128 181.77508039 -194.92027412 170.29249552 -189.015625 160.55859375 C-183.36415203 152.9469252 -176.76007883 147.04051836 -167.59375 144.16015625 C-166.27375 144.16015625 -164.95375 144.16015625 -163.59375 144.16015625 C-165.11581009 141.53114337 -166.43740964 139.31649661 -168.59375 137.16015625 C-168.59375 135.84015625 -168.59375 134.52015625 -168.59375 133.16015625 C-166.94375 133.49015625 -165.29375 133.82015625 -163.59375 134.16015625 C-163.59375 134.82015625 -163.59375 135.48015625 -163.59375 136.16015625 C-162.60375 136.49015625 -161.61375 136.82015625 -160.59375 137.16015625 C-160.20574219 137.97871094 -159.81773437 138.79726562 -159.41796875 139.640625 C-157.7157813 142.56429857 -157.7157813 142.56429857 -153.80078125 143.0859375 C-152.33817602 143.23815433 -150.87290634 143.36633968 -149.40625 143.47265625 C-148.65666016 143.54548828 -147.90707031 143.61832031 -147.13476562 143.69335938 C-145.28962013 143.86964716 -143.44181305 144.01767038 -141.59375 144.16015625 C-141.62855469 143.2165625 -141.66335937 142.27296875 -141.69921875 141.30078125 C-141.93154894 130.2816923 -141.60278007 119.13063113 -134.03125 110.34765625 C-132.59375 109.16015625 -132.59375 109.16015625 -130.59375 109.16015625 C-130.26375 106.85015625 -129.93375 104.54015625 -129.59375 102.16015625 C-130.893125 102.22203125 -132.1925 102.28390625 -133.53125 102.34765625 C-141.51046494 102.31007753 -147.342379 99.93915269 -153.28125 94.66015625 C-155.40812585 92.22944099 -155.6176648 89.94492301 -155.96875 86.78515625 C-155.48074236 82.06774909 -154.23623842 81.12793503 -150.59375 78.16015625 C-147.7945023 76.90102831 -144.91609505 76.06567617 -141.96875 75.22265625 C-131.12419128 71.84745807 -122.16352965 67.87184913 -114.59375 59.16015625 C-114.03300781 58.51949219 -113.47226563 57.87882812 -112.89453125 57.21875 C-111.72473574 55.87545673 -110.55547446 54.53169807 -109.38671875 53.1875 C-96.04927076 38.10659475 -78.88179884 25.4202544 -58.59375 22.16015625 C-57.90369873 22.12607666 -57.21364746 22.09199707 -56.50268555 22.05688477 C-50.30889339 21.68271896 -47.00050226 19.8890269 -42.28125 15.97265625 C-29.47442378 6.01661508 -16.18641542 0.9994624 0 0 Z M-37.84375 17.91015625 C-38.41746338 18.29896973 -38.99117676 18.6877832 -39.58227539 19.08837891 C-40.95957895 20.0576317 -42.28277301 21.10291674 -43.59375 22.16015625 C-43.59375 22.82015625 -43.59375 23.48015625 -43.59375 24.16015625 C-46.73118685 25.20596853 -49.11261867 25.29644271 -52.40625 25.41015625 C-69.13450045 26.61965156 -83.33509037 35.26158149 -95.59375 46.16015625 C-96.40457031 46.85238281 -97.21539062 47.54460937 -98.05078125 48.2578125 C-110.41864162 59.58669267 -122.94947044 77.90950004 -125.40625 94.72265625 C-125.52460205 95.45282959 -125.6429541 96.18300293 -125.76489258 96.93530273 C-126.55046699 102.0537843 -126.87635882 106.97899459 -126.59375 112.16015625 C-127.51994141 112.59134766 -127.51994141 112.59134766 -128.46484375 113.03125 C-132.52398834 115.18371383 -134.61425044 118.70660098 -136.34375 122.84765625 C-138.46490869 130.03535399 -139.4725017 138.82443392 -137.59375 146.16015625 C-134.79399438 149.5857396 -131.45716097 151.1211338 -127.59375 153.16015625 C-121.39582133 158.47097681 -117.70377884 165.33204058 -115.59375 173.16015625 C-115.42734401 175.69850792 -115.32488092 178.24173012 -115.28125 180.78515625 C-114.97766215 188.81792663 -112.29676956 192.70803095 -106.59375 198.16015625 C-105.86285156 198.87816406 -105.13195312 199.59617187 -104.37890625 200.3359375 C-93.40657871 210.57549097 -81.83966206 215.98661338 -67.59375 220.16015625 C-65.63510989 220.7841942 -63.67678024 221.40920735 -61.71875 222.03515625 C-59.34632594 222.75398653 -56.9722636 223.46213277 -54.59375 224.16015625 C-53.80274902 224.39524902 -53.01174805 224.6303418 -52.19677734 224.87255859 C-29.54386954 231.50689558 -7.14993367 233.79744779 16.40625 233.16015625 C15.74625 228.87015625 15.08625 224.58015625 14.40625 220.16015625 C17.53130696 220.13326761 20.65613425 220.11337163 23.78125 220.09765625 C24.67070312 220.08927734 25.56015625 220.08089844 26.4765625 220.07226562 C27.32734375 220.06904297 28.178125 220.06582031 29.0546875 220.0625 C29.84020996 220.05726318 30.62573242 220.05202637 31.43505859 220.04663086 C33.40625 220.16015625 33.40625 220.16015625 35.40625 221.16015625 C35.54017857 229.19587054 35.54017857 229.19587054 34.40625 233.16015625 C49.12011504 233.81789525 63.62842795 231.69156881 77.82421875 227.83984375 C80.32176372 227.18239621 82.80364091 226.68449427 85.34375 226.22265625 C105.04163971 222.26437778 126.55439679 211.90556767 141.40625 198.16015625 C141.40625 197.50015625 141.40625 196.84015625 141.40625 196.16015625 C141.98375 195.90878906 142.56125 195.65742188 143.15625 195.3984375 C145.69267963 194.0025205 147.38332714 192.41404035 149.40625 190.34765625 C150.06625 189.68121094 150.72625 189.01476562 151.40625 188.328125 C152.06625 187.61269531 152.72625 186.89726562 153.40625 186.16015625 C154.13714844 185.39960938 154.86804688 184.6390625 155.62109375 183.85546875 C157.92572832 180.37582356 157.90523451 177.99310076 157.96875 173.84765625 C158.38955656 163.14677773 161.36974921 157.21051844 168.40625 149.16015625 C169.13199219 148.54398438 169.85773438 147.9278125 170.60546875 147.29296875 C173.05776435 144.38851453 172.87748769 142.5384261 172.78125 138.78515625 C172.76835937 137.68429688 172.75546875 136.5834375 172.7421875 135.44921875 C172.53605199 132.17493458 172.53605199 132.17493458 171.40234375 129.28125 C170.13694729 125.31634108 170.15865221 121.72947701 170.09375 117.59765625 C169.44767108 100.36944746 164.95800947 85.06866507 156.40625 70.16015625 C155.97441406 69.36480469 155.54257812 68.56945312 155.09765625 67.75 C149.05947566 57.2406407 139.7924456 48.85233982 129.40625 42.78515625 C126.13350815 40.81892399 123.67807641 38.53414087 121.03125 35.78515625 C102.50499732 16.72418999 74.21631717 5.63320827 48.03125 4.84765625 C42.11496115 4.85944169 37.7934261 5.65315397 32.5546875 8.3828125 C28.0808997 10.00151027 23.81911109 7.61742031 19.6640625 5.87890625 C-0.62823191 -0.5809245 -21.08842294 6.53548401 -37.84375 17.91015625 Z " fill="#F8F4EA" transform="translate(228.59375,88.83984375)"/>
<path d="M0 0 C9.19058053 -0.28411741 18.7790721 1.05096401 27.56640625 3.84765625 C30.1411355 4.28497757 31.88266558 3.55535399 34.34375 2.72265625 C56.82984721 -3.76142998 82.66731888 5.46636742 102.40625 16.16015625 C111.31161396 21.44996299 120.99963949 27.57990749 127.40625 35.84765625 C129.68953041 38.70015783 131.76617356 39.97864234 135.09375 41.47265625 C142.69506388 44.92779892 149.8276898 51.13365298 154.40625 58.16015625 C154.40625 58.82015625 154.40625 59.48015625 154.40625 60.16015625 C155.06625 60.16015625 155.72625 60.16015625 156.40625 60.16015625 C157.52670803 61.28061428 158.64410206 62.40423118 159.75 63.5390625 C168.94050452 72.53448556 179.08643342 77.72856138 191.40625 81.22265625 C196.44800752 82.71018809 199.5669815 83.63835826 202.40625 88.16015625 C202.94717056 91.94660019 202.78688272 94.27201323 201.28125 97.78515625 C197.47321933 102.60866177 193.95152251 105.61586939 187.83984375 106.890625 C182.71138844 107.45862406 177.55640044 107.30147135 172.40625 107.16015625 C172.56351562 107.70285156 172.72078125 108.24554688 172.8828125 108.8046875 C173.48355635 111.50803482 173.63250823 114.08176757 173.78125 116.84765625 C174.35244669 125.06914298 175.86690402 133.07616951 177.40625 141.16015625 C178.06109375 140.88300781 178.7159375 140.60585937 179.390625 140.3203125 C184.67322521 138.22368728 189.13855899 136.96059263 194.84375 136.78515625 C198.77366097 136.71421008 198.77366097 136.71421008 201.98046875 134.7734375 C203.1786625 132.93825146 203.1786625 132.93825146 204.40625 130.16015625 C205.06625 130.16015625 205.72625 130.16015625 206.40625 130.16015625 C206.73625 129.17015625 207.06625 128.18015625 207.40625 127.16015625 C208.72625 127.16015625 210.04625 127.16015625 211.40625 127.16015625 C210.89472632 130.94543146 210.19779158 132.60124313 207.40625 135.16015625 C207.07625 136.15015625 206.74625 137.14015625 206.40625 138.16015625 C207.355 138.20140625 208.30375 138.24265625 209.28125 138.28515625 C217.80421445 139.55929639 224.39272259 145.45662629 229.71875 151.8671875 C236.97584525 161.72810165 238.24799986 172.14485583 237.40625 184.16015625 C235.65661311 195.31011495 229.14689458 204.90424334 220.11328125 211.5 C209.67879558 217.8992156 199.22566776 217.63293296 187.40625 217.16015625 C187.28121094 217.87171875 187.15617187 218.58328125 187.02734375 219.31640625 C184.21622254 232.18745178 176.546209 243.11926776 166.34375 251.22265625 C162.34936417 254.99357994 161.89560091 258.05609739 161.64086914 263.31274414 C161.59408701 265.9536315 161.58384843 268.59312739 161.57421875 271.234375 C161.49436727 278.0662581 159.44251748 284.08762128 156.40625 290.16015625 C155.74625 290.16015625 155.08625 290.16015625 154.40625 290.16015625 C154.40625 290.82015625 154.40625 291.48015625 154.40625 292.16015625 C153.49875 292.53140625 152.59125 292.90265625 151.65625 293.28515625 C148.27141362 294.90405762 148.27141362 294.90405762 146.65625 297.91015625 C141.77370623 304.96271947 133.76952233 309.53109634 125.40625 311.16015625 C119.42628859 312.01618345 113.42076829 312.6086632 107.40625 313.16015625 C107.90382813 314.37960937 108.40140625 315.5990625 108.9140625 316.85546875 C110.12888084 320.10213874 110.76577422 322.54409713 110.28125 326.03515625 C110.19617188 326.77507812 110.11109375 327.515 110.0234375 328.27734375 C109.40625 330.16015625 109.40625 330.16015625 106.40625 332.16015625 C98.79264788 333.24962344 92.10394602 331.83546428 85.40625 328.16015625 C84.63885498 327.53959351 84.63885498 327.53959351 83.85595703 326.90649414 C79.07911749 323.04827759 75.81848478 322.57173344 69.78125 322.97265625 C62.99235812 323.21892887 56.80208983 322.83932422 50.10546875 321.5 C47.4684358 321.02012972 47.4684358 321.02012972 45.14526367 321.62841797 C39.53290552 322.71797284 33.73202913 322.35227989 28.03125 322.34765625 C27.35429077 322.34904602 26.67733154 322.35043579 25.9798584 322.35186768 C17.24752452 322.36094495 8.90602843 321.91113318 0.28515625 320.47265625 C-3.37746848 320.07508504 -6.22109106 320.71211125 -9.7421875 321.671875 C-12.96939827 322.22447958 -15.88776135 322.09697385 -19.14624023 321.94921875 C-27.38319373 321.59845893 -32.51062721 322.09414698 -39.234375 327.43359375 C-43.60432682 330.6314724 -47.94709567 331.43991443 -53.28125 331.41015625 C-54.21324219 331.4153125 -55.14523438 331.42046875 -56.10546875 331.42578125 C-58.59375 331.16015625 -58.59375 331.16015625 -61.59375 329.16015625 C-62.2109375 327.27734375 -62.2109375 327.27734375 -62.46875 325.03515625 C-62.56929687 324.31070312 -62.66984375 323.58625 -62.7734375 322.83984375 C-62.51072706 318.92203158 -61.07514915 315.7907355 -59.59375 312.16015625 C-61.35138672 312.01320313 -61.35138672 312.01320313 -63.14453125 311.86328125 C-76.40612171 310.64946066 -87.64528019 308.80452436 -97.59375 299.16015625 C-98.59943242 297.49691224 -99.60039799 295.83079372 -100.59375 294.16015625 C-102.35573659 293.23110877 -104.11787416 292.3023339 -105.8828125 291.37890625 C-109.06033346 289.11546666 -110.30628647 285.74186759 -111.59375 282.16015625 C-112.15642578 280.61714844 -112.15642578 280.61714844 -112.73046875 279.04296875 C-113.63858395 274.9585049 -113.53723505 271.71849821 -113.25952148 267.5859375 C-112.61704034 258.93705733 -112.61704034 258.93705733 -115.49609375 251.0234375 C-118.00769802 248.61974807 -118.00769802 248.61974807 -120.78515625 246.47265625 C-128.5033803 240.11773464 -133.56040712 230.55715551 -136.59375 221.16015625 C-137.728125 221.49015625 -138.8625 221.82015625 -140.03125 222.16015625 C-152.56198225 224.88766579 -165.90400134 224.30306872 -177.08203125 217.6875 C-185.38048746 211.78792525 -191.75376128 202.82025115 -194.14453125 192.8671875 C-195.9852128 181.77508039 -194.92027412 170.29249552 -189.015625 160.55859375 C-183.36415203 152.9469252 -176.76007883 147.04051836 -167.59375 144.16015625 C-166.27375 144.16015625 -164.95375 144.16015625 -163.59375 144.16015625 C-165.11581009 141.53114337 -166.43740964 139.31649661 -168.59375 137.16015625 C-168.59375 135.84015625 -168.59375 134.52015625 -168.59375 133.16015625 C-166.94375 133.49015625 -165.29375 133.82015625 -163.59375 134.16015625 C-163.59375 134.82015625 -163.59375 135.48015625 -163.59375 136.16015625 C-162.60375 136.49015625 -161.61375 136.82015625 -160.59375 137.16015625 C-160.20574219 137.97871094 -159.81773437 138.79726562 -159.41796875 139.640625 C-157.7157813 142.56429857 -157.7157813 142.56429857 -153.80078125 143.0859375 C-152.33817602 143.23815433 -150.87290634 143.36633968 -149.40625 143.47265625 C-148.65666016 143.54548828 -147.90707031 143.61832031 -147.13476562 143.69335938 C-145.28962013 143.86964716 -143.44181305 144.01767038 -141.59375 144.16015625 C-141.62855469 143.2165625 -141.66335937 142.27296875 -141.69921875 141.30078125 C-141.93154894 130.2816923 -141.60278007 119.13063113 -134.03125 110.34765625 C-132.59375 109.16015625 -132.59375 109.16015625 -130.59375 109.16015625 C-130.26375 106.85015625 -129.93375 104.54015625 -129.59375 102.16015625 C-130.893125 102.22203125 -132.1925 102.28390625 -133.53125 102.34765625 C-141.51046494 102.31007753 -147.342379 99.93915269 -153.28125 94.66015625 C-155.40812585 92.22944099 -155.6176648 89.94492301 -155.96875 86.78515625 C-155.48074236 82.06774909 -154.23623842 81.12793503 -150.59375 78.16015625 C-147.7945023 76.90102831 -144.91609505 76.06567617 -141.96875 75.22265625 C-131.12419128 71.84745807 -122.16352965 67.87184913 -114.59375 59.16015625 C-114.03300781 58.51949219 -113.47226563 57.87882812 -112.89453125 57.21875 C-111.72473574 55.87545673 -110.55547446 54.53169807 -109.38671875 53.1875 C-96.04927076 38.10659475 -78.88179884 25.4202544 -58.59375 22.16015625 C-57.90369873 22.12607666 -57.21364746 22.09199707 -56.50268555 22.05688477 C-50.30889339 21.68271896 -47.00050226 19.8890269 -42.28125 15.97265625 C-29.47442378 6.01661508 -16.18641542 0.9994624 0 0 Z M-37.84375 17.91015625 C-38.41746338 18.29896973 -38.99117676 18.6877832 -39.58227539 19.08837891 C-40.95957895 20.0576317 -42.28277301 21.10291674 -43.59375 22.16015625 C-43.59375 22.82015625 -43.59375 23.48015625 -43.59375 24.16015625 C-46.73118685 25.20596853 -49.11261867 25.29644271 -52.40625 25.41015625 C-69.13450045 26.61965156 -83.33509037 35.26158149 -95.59375 46.16015625 C-96.40457031 46.85238281 -97.21539062 47.54460937 -98.05078125 48.2578125 C-110.41864162 59.58669267 -122.94947044 77.90950004 -125.40625 94.72265625 C-125.52460205 95.45282959 -125.6429541 96.18300293 -125.76489258 96.93530273 C-126.55046699 102.0537843 -126.87635882 106.97899459 -126.59375 112.16015625 C-127.51994141 112.59134766 -127.51994141 112.59134766 -128.46484375 113.03125 C-132.52398834 115.18371383 -134.61425044 118.70660098 -136.34375 122.84765625 C-138.46490869 130.03535399 -139.4725017 138.82443392 -137.59375 146.16015625 C-134.79399438 149.5857396 -131.45716097 151.1211338 -127.59375 153.16015625 C-121.39582133 158.47097681 -117.70377884 165.33204058 -115.59375 173.16015625 C-115.42734401 175.69850792 -115.32488092 178.24173012 -115.28125 180.78515625 C-114.97766215 188.81792663 -112.29676956 192.70803095 -106.59375 198.16015625 C-105.86285156 198.87816406 -105.13195312 199.59617187 -104.37890625 200.3359375 C-93.40657871 210.57549097 -81.83966206 215.98661338 -67.59375 220.16015625 C-65.63510989 220.7841942 -63.67678024 221.40920735 -61.71875 222.03515625 C-59.34632594 222.75398653 -56.9722636 223.46213277 -54.59375 224.16015625 C-53.80274902 224.39524902 -53.01174805 224.6303418 -52.19677734 224.87255859 C-29.54386954 231.50689558 -7.14993367 233.79744779 16.40625 233.16015625 C15.74625 228.87015625 15.08625 224.58015625 14.40625 220.16015625 C17.53130696 220.13326761 20.65613425 220.11337163 23.78125 220.09765625 C24.67070312 220.08927734 25.56015625 220.08089844 26.4765625 220.07226562 C27.32734375 220.06904297 28.178125 220.06582031 29.0546875 220.0625 C29.84020996 220.05726318 30.62573242 220.05202637 31.43505859 220.04663086 C33.40625 220.16015625 33.40625 220.16015625 35.40625 221.16015625 C35.54017857 229.19587054 35.54017857 229.19587054 34.40625 233.16015625 C49.12011504 233.81789525 63.62842795 231.69156881 77.82421875 227.83984375 C80.32176372 227.18239621 82.80364091 226.68449427 85.34375 226.22265625 C105.04163971 222.26437778 126.55439679 211.90556767 141.40625 198.16015625 C141.40625 197.50015625 141.40625 196.84015625 141.40625 196.16015625 C141.98375 195.90878906 142.56125 195.65742188 143.15625 195.3984375 C145.69267963 194.0025205 147.38332714 192.41404035 149.40625 190.34765625 C150.06625 189.68121094 150.72625 189.01476562 151.40625 188.328125 C152.06625 187.61269531 152.72625 186.89726562 153.40625 186.16015625 C154.13714844 185.39960938 154.86804688 184.6390625 155.62109375 183.85546875 C157.92572832 180.37582356 157.90523451 177.99310076 157.96875 173.84765625 C158.38955656 163.14677773 161.36974921 157.21051844 168.40625 149.16015625 C169.13199219 148.54398438 169.85773438 147.9278125 170.60546875 147.29296875 C173.05776435 144.38851453 172.87748769 142.5384261 172.78125 138.78515625 C172.76835937 137.68429688 172.75546875 136.5834375 172.7421875 135.44921875 C172.53605199 132.17493458 172.53605199 132.17493458 171.40234375 129.28125 C170.13694729 125.31634108 170.15865221 121.72947701 170.09375 117.59765625 C169.44767108 100.36944746 164.95800947 85.06866507 156.40625 70.16015625 C155.97441406 69.36480469 155.54257812 68.56945312 155.09765625 67.75 C149.05947566 57.2406407 139.7924456 48.85233982 129.40625 42.78515625 C126.13350815 40.81892399 123.67807641 38.53414087 121.03125 35.78515625 C102.50499732 16.72418999 74.21631717 5.63320827 48.03125 4.84765625 C42.11496115 4.85944169 37.7934261 5.65315397 32.5546875 8.3828125 C28.0808997 10.00151027 23.81911109 7.61742031 19.6640625 5.87890625 C-0.62823191 -0.5809245 -21.08842294 6.53548401 -37.84375 17.91015625 Z M149.34375 196.09765625 C148.37179687 196.92394531 147.39984375 197.75023437 146.3984375 198.6015625 C145.41101563 199.44589844 144.42359375 200.29023438 143.40625 201.16015625 C124.43428698 216.84106446 102.48815018 225.99750492 78.59375 231.22265625 C76.82837891 231.6088916 76.82837891 231.6088916 75.02734375 232.00292969 C63.99043798 234.28015737 52.94281194 235.39675249 41.71557617 236.22290039 C40.42756104 236.32078857 39.1395459 236.41867676 37.8125 236.51953125 C36.67103516 236.59655273 35.52957031 236.67357422 34.35351562 236.75292969 C31.53098913 237.14292092 29.89423655 237.88164448 27.40625 239.16015625 C20.85069444 238.60460069 20.85069444 238.60460069 19.40625 237.16015625 C17.18257494 236.95361649 14.9528746 236.81156902 12.72265625 236.6953125 C11.31493541 236.61811065 9.9072208 236.54079498 8.49951172 236.46337891 C7.7595697 236.42432434 7.01962769 236.38526978 6.25726318 236.34503174 C-11.76292657 235.38142378 -29.30632369 233.71994201 -47.07080078 230.48095703 C-48.00520996 230.31063965 -48.93961914 230.14032227 -49.90234375 229.96484375 C-50.73564209 229.80999512 -51.56894043 229.65514648 -52.42749023 229.49560547 C-54.72251454 229.08364228 -54.72251454 229.08364228 -57.59375 229.16015625 C-57.59375 228.50015625 -57.59375 227.84015625 -57.59375 227.16015625 C-58.62435547 226.97839844 -58.62435547 226.97839844 -59.67578125 226.79296875 C-61.02736328 226.54160156 -61.02736328 226.54160156 -62.40625 226.28515625 C-63.29957031 226.12273437 -64.19289063 225.9603125 -65.11328125 225.79296875 C-67.59375 225.16015625 -67.59375 225.16015625 -70.59375 223.16015625 C-71.93535136 222.68552019 -73.29162311 222.25134805 -74.65625 221.84765625 C-89.82523594 216.93859931 -104.65005408 207.65351779 -114.59375 195.16015625 C-116.76323585 197.3296421 -117.61821052 199.14108115 -118.90625 201.91015625 C-122.2875737 208.77167276 -126.02303214 213.18716405 -132.59375 217.16015625 C-130.36017933 231.25475737 -120.19523503 242.40024374 -109.59375 251.16015625 C-107.59375 253.16015625 -107.59375 253.16015625 -107.3984375 255.98046875 C-107.42164062 257.07101562 -107.44484375 258.1615625 -107.46875 259.28515625 C-107.48679687 260.38085938 -107.50484375 261.4765625 -107.5234375 262.60546875 C-107.54664062 263.44851563 -107.56984375 264.2915625 -107.59375 265.16015625 C-108.58375 265.65515625 -108.58375 265.65515625 -109.59375 266.16015625 C-109.97223643 272.97291206 -109.75059301 280.58240084 -105.01171875 285.953125 C-103.25745404 287.43985479 -101.44603629 288.7987877 -99.59375 290.16015625 C-97.92708333 291.82682292 -96.26041667 293.49348958 -94.59375 295.16015625 C-87.74275713 301.98028879 -79.50692717 307.11553831 -69.51538086 307.171875 C-66.21889587 307.09533176 -62.92490159 307.00773007 -59.63085938 306.85742188 C-53.93842527 306.73592328 -51.24024143 307.62957931 -46.59375 311.16015625 C-44.10813485 312.3697481 -41.54873206 313.3583205 -38.96875 314.34765625 C-38.31390625 314.60740234 -37.6590625 314.86714844 -36.984375 315.13476562 C-30.89549707 317.51978158 -26.1270065 318.32066308 -19.59375 318.28515625 C-18.52640625 318.29095703 -18.52640625 318.29095703 -17.4375 318.296875 C-13.96763623 318.29040137 -10.93649563 318.0107953 -7.59375 317.16015625 C-5.11602044 317.06603021 -2.63576191 317.03024146 -0.15625 317.03515625 C1.14183594 317.03257812 2.43992188 317.03 3.77734375 317.02734375 C7.40625 317.16015625 7.40625 317.16015625 9.70996094 317.66015625 C12.90990516 318.25355409 15.92109292 318.28985698 19.17578125 318.29296875 C21.12774414 318.29490234 21.12774414 318.29490234 23.11914062 318.296875 C23.79307861 318.29478027 24.4670166 318.29268555 25.16137695 318.29052734 C27.20206226 318.28519982 29.24252483 318.29047249 31.28320312 318.296875 C39.21516988 318.32010423 39.21516988 318.32010423 47.1015625 317.59375 C50.09591819 317.20087354 51.66909561 317.18821438 54.46875 318.09765625 C70.69971954 322.14841457 85.30170602 317.06356451 99.40625 309.16015625 C99.73625 308.83015625 100.06625 308.50015625 100.40625 308.16015625 C102.50157578 308.16438923 104.59716897 308.17574667 106.69189453 308.22607422 C119.19263041 308.51130692 129.49397409 307.51756535 139.40625 299.16015625 C141.03072624 297.41478876 142.52634259 295.62048917 144.00390625 293.75 C145.40625 292.16015625 145.40625 292.16015625 148.53125 290.09765625 C153.29853839 286.88491842 155.53782443 282.75136245 157.04443359 277.26733398 C157.91192131 272.21518388 157.26300358 266.89789293 156.88867188 261.81054688 C156.65296522 255.1193641 156.65296522 255.1193641 158.86376953 252.30419922 C160.64554668 250.79429058 162.4764171 249.4727627 164.40625 248.16015625 C172.5276421 239.97430866 183.40625 227.31274589 183.40625 215.16015625 C182.395625 214.58265625 181.385 214.00515625 180.34375 213.41015625 C179.70308594 213.03761719 179.06242187 212.66507813 178.40234375 212.28125 C176.60852738 211.27376409 174.75947184 210.36617392 172.90625 209.47265625 C166.47973107 205.81069839 162.29784516 198.79381573 159.40625 192.16015625 C154.66736061 191.62607748 152.84922406 193.0045909 149.34375 196.09765625 Z " fill="#59372B" transform="translate(228.59375,88.83984375)"/>
<path d="M0 0 C0.91652344 0.66515625 0.91652344 0.66515625 1.8515625 1.34375 C2.95371094 2.00310547 2.95371094 2.00310547 4.078125 2.67578125 C4.86960937 3.16433594 5.66109375 3.65289062 6.4765625 4.15625 C8.26570122 5.2230013 10.05734879 6.2855568 11.8515625 7.34375 C12.57988281 7.78203125 13.30820312 8.2203125 14.05859375 8.671875 C23.65419954 13.98222776 35.71502514 17.24562353 46.6640625 17.84375 C50.33038804 18.1101612 52.69954602 18.90564652 55.42578125 21.578125 C69.8515625 39.44238014 69.8515625 39.44238014 69.8515625 47.34375 C68.75199219 47.36953125 67.65242187 47.3953125 66.51953125 47.421875 C55.47519045 47.79844348 45.43984484 48.58659176 36.8515625 56.34375 C36.1915625 56.34375 35.5315625 56.34375 34.8515625 56.34375 C34.8515625 57.00375 34.8515625 57.66375 34.8515625 58.34375 C34.1915625 58.34375 33.5315625 58.34375 32.8515625 58.34375 C32.57441406 59.05402344 32.29726563 59.76429688 32.01171875 60.49609375 C31.25900926 62.34365341 30.45651852 64.17198863 29.59765625 65.97265625 C25.14313195 75.95876892 24.97001371 85.54315339 24.8515625 96.34375 C21.20744003 97.16405042 17.56099452 97.97354022 13.9140625 98.78125 C12.89248047 99.01134766 11.87089844 99.24144531 10.81835938 99.47851562 C2.23043735 101.37169971 -5.9021363 102.49177234 -14.7109375 102.40625 C-15.92910156 102.39722656 -17.14726562 102.38820313 -18.40234375 102.37890625 C-19.76166016 102.36150391 -19.76166016 102.36150391 -21.1484375 102.34375 C-20.98472656 101.77140625 -20.82101562 101.1990625 -20.65234375 100.609375 C-20.14940801 98.34811354 -20.04743866 96.40368054 -20.0859375 94.09375 C-20.1065625 92.85625 -20.1271875 91.61875 -20.1484375 90.34375 C-22.49696278 89.16948736 -23.88617815 89.22866827 -26.5 89.24609375 C-27.35078125 89.24931641 -28.2015625 89.25253906 -29.078125 89.25585938 C-29.96757812 89.26423828 -30.85703125 89.27261719 -31.7734375 89.28125 C-32.670625 89.28576172 -33.5678125 89.29027344 -34.4921875 89.29492188 C-36.71096581 89.30672389 -38.92970993 89.32465961 -41.1484375 89.34375 C-40.4884375 93.63375 -39.8284375 97.92375 -39.1484375 102.34375 C-56.25688173 102.8066037 -74.50917387 102.86026069 -91.1484375 98.34375 C-91.25800781 97.36535156 -91.36757812 96.38695312 -91.48046875 95.37890625 C-93.16265455 81.16289381 -96.33877537 70.37220966 -107.1484375 60.34375 C-113.01215593 56.61628881 -118.7095007 54.19889232 -125.6953125 54.24609375 C-126.53964844 54.24931641 -127.38398438 54.25253906 -128.25390625 54.25585938 C-129.12660156 54.26423828 -129.99929687 54.27261719 -130.8984375 54.28125 C-131.78660156 54.28576172 -132.67476562 54.29027344 -133.58984375 54.29492188 C-135.77611079 54.306676 -137.96223929 54.32310751 -140.1484375 54.34375 C-140.59450674 45.3232387 -139.54812425 37.05971069 -137.1484375 28.34375 C-135.64296228 26.83827478 -134.11663049 26.93494552 -132.02734375 26.625 C-131.17333984 26.49738281 -130.31933594 26.36976563 -129.43945312 26.23828125 C-128.08883789 26.04298828 -128.08883789 26.04298828 -126.7109375 25.84375 C-125.84533203 25.71355469 -124.97972656 25.58335937 -124.08789062 25.44921875 C-118.12208514 24.56967334 -112.1533749 23.89266214 -106.1484375 23.34375 C-106.1484375 22.68375 -106.1484375 22.02375 -106.1484375 21.34375 C-105.31183594 21.15941406 -104.47523438 20.97507813 -103.61328125 20.78515625 C-93.24838722 18.20254146 -83.29542254 13.83705031 -75.23144531 6.63061523 C-73.1484375 5.34375 -73.1484375 5.34375 -70.98779297 5.69384766 C-69.82594482 6.15863525 -69.82594482 6.15863525 -68.640625 6.6328125 C-62.7726995 8.63602307 -57.4346908 8.80256347 -51.2734375 8.71875 C-50.18426025 8.70859863 -49.09508301 8.69844727 -47.97290039 8.68798828 C-33.75925225 8.42025657 -20.25398302 6.97770519 -7.16967773 1.14990234 C-2.64825202 -0.80892062 -2.64825202 -0.80892062 0 0 Z " fill="#FEFEFD" transform="translate(284.1484375,219.65625)"/>
<path d="M0 0 C1.21471698 1.45228918 2.42369934 2.91051176 3.58007812 4.40966797 C6.006007 7.12674168 8.99729089 8.51671347 12.25 10.0625 C13.29401978 10.56837646 13.29401978 10.56837646 14.35913086 11.08447266 C25.71064602 16.39157566 37.22634671 19.42052034 49.73046875 20.0546875 C57.84076103 22.39959877 62.0098427 32.41086373 65.875 39.3125 C71.74778906 49.96480458 73.84015156 58.02023778 72 70 C71.82404297 71.43279297 71.82404297 71.43279297 71.64453125 72.89453125 C70.82990067 77.75811777 69.04753795 81.18204446 66 85 C63.36852018 86.85889613 60.57653379 88.27169865 57.6875 89.6875 C56.95337891 90.06455078 56.21925781 90.44160156 55.46289062 90.83007812 C48.98742735 94.12239441 42.43322759 96.99141699 35.5 99.1875 C34.4378125 99.53167969 33.375625 99.87585938 32.28125 100.23046875 C28.7512865 101.05832924 25.61305428 101.13229618 22 101 C21.3380212 87.06902387 21.89078204 75.95729189 30 64 C30.66 64 31.32 64 32 64 C32 63.34 32 62.68 32 62 C42.83817828 52.80164066 53.48540751 52.58106315 67 53 C66.63648438 52.40574219 66.27296875 51.81148438 65.8984375 51.19921875 C63.11441618 46.60915283 60.44480852 41.99760497 57.9375 37.25 C54.15254333 30.03833104 54.15254333 30.03833104 48 25 C45.79427084 24.72797978 43.58522793 24.48265557 41.375 24.25 C27.32054919 22.52365604 10.54380748 17.96989076 -0.11328125 8.22265625 C-2.69875233 5.75728671 -2.69875233 5.75728671 -5.31640625 6.02734375 C-6.05761719 6.32769531 -6.79882812 6.62804687 -7.5625 6.9375 C-8.42617188 7.25460938 -9.28984375 7.57171875 -10.1796875 7.8984375 C-11.11039063 8.26195312 -12.04109375 8.62546875 -13 9 C-26.58924054 13.69446492 -39.46050791 15.16535901 -53.75 15.3125 C-55.31186035 15.33908691 -55.31186035 15.33908691 -56.90527344 15.36621094 C-63.28880412 15.36013717 -68.5721567 14.52861525 -74.59106445 12.35839844 C-77.08734425 11.74440274 -77.08734425 11.74440274 -79.39624023 13.26220703 C-80.8381494 14.44560384 -82.23965437 15.67905998 -83.609375 16.9453125 C-90.12519992 22.54551496 -100.2749022 27.51324105 -109 27 C-109 27.66 -109 28.32 -109 29 C-112.49931587 29.64957631 -115.99956712 30.29397258 -119.5 30.9375 C-120.48226562 31.11990234 -121.46453125 31.30230469 -122.4765625 31.49023438 C-127.97448198 32.49818628 -133.44559282 33.371823 -139 34 C-141.03895283 42.66875541 -142.52735047 51.10115016 -143 60 C-142.13890625 59.84144531 -141.2778125 59.68289063 -140.390625 59.51953125 C-129.11405676 57.79166999 -120.88385235 59.34734365 -110.9375 64.625 C-100.92295747 72.72186417 -95.45705205 81.19508379 -94 94 C-93.93556717 97.3345585 -93.95249488 100.6653032 -94 104 C-97.64719175 103.06773382 -101.29248089 102.12822183 -104.9375 101.1875 C-106.46987305 100.79594727 -106.46987305 100.79594727 -108.03320312 100.39648438 C-113.43584615 98.99835631 -118.72763993 97.46645281 -124.00073242 95.64135742 C-126.22745452 94.88994974 -126.22745452 94.88994974 -129.51171875 94.25390625 C-134.37669468 93.19474175 -137.89605119 92.39931272 -141.05859375 88.390625 C-142.63574419 85.29138674 -143.87621024 82.29109858 -145 79 C-145.26272705 78.34402832 -145.5254541 77.68805664 -145.79614258 77.01220703 C-148.17997969 70.73479282 -148.50094431 64.92434179 -148.4375 58.25 C-148.43427734 57.19683594 -148.43105469 56.14367187 -148.42773438 55.05859375 C-148.28560759 47.10929543 -147.21194763 40.34159459 -144 33 C-144.66 33 -145.32 33 -146 33 C-146 32.01 -146 31.02 -146 30 C-145.07719238 29.87939209 -145.07719238 29.87939209 -144.13574219 29.75634766 C-141.33945757 29.38663896 -138.54477586 29.0059393 -135.75 28.625 C-134.78191406 28.49867188 -133.81382812 28.37234375 -132.81640625 28.2421875 C-131.88183594 28.11328125 -130.94726562 27.984375 -129.984375 27.8515625 C-129.12553711 27.73635254 -128.26669922 27.62114258 -127.38183594 27.50244141 C-124.95898671 26.99134837 -123.18544758 26.13445004 -121 25 C-118.49833974 24.512627 -116.01544828 24.08289499 -113.5 23.6875 C-101.19284213 21.53619204 -89.69484459 16.93918199 -80.859375 7.78125 C-80.24578125 7.1934375 -79.6321875 6.605625 -79 6 C-75.80286183 6.08880939 -73.5509037 7.19959835 -70.625 8.5 C-51.80148781 15.61577835 -27.24470174 9.13042582 -9.42895508 1.98144531 C-6.00718659 0.62961449 -3.74104143 0 0 0 Z " fill="#DFCFB3" transform="translate(287,214)"/>
<path d="M0 0 C-1.5 9 -1.5 9 -3 18 C-7.84659077 17.40895235 -11.60748167 16.02055843 -16 14 C-16.04289755 15.93109581 -16.04289755 15.93109581 -15 18 C-8.669624 21.85327235 -1.71352364 22.03742626 5.44921875 20.4609375 C7.88860833 19.72881315 7.88860833 19.72881315 11 18 C11.33 16.68 11.66 15.36 12 14 C8.37 15.32 4.74 16.64 1 18 C0.63796159 12.32806491 1.33577868 7.10916517 4 2 C7.88793951 0.70402016 9.15489298 1.60575873 12.875 3.1875 C13.90367187 3.61417969 14.93234375 4.04085937 15.9921875 4.48046875 C24.7990294 8.92963953 30.3243609 17.02767071 34 26 C36.63322159 34.18054174 35.93993441 43.97513988 32.3203125 51.6953125 C26.85910891 61.22818267 19.15964476 69.49104305 8.30859375 72.5 C-3.27277724 75.00831724 -12.57733936 73.24647226 -22.640625 66.8046875 C-30.29557982 60.94940749 -35.73294648 53.76038586 -37.17993164 44.08789062 C-38.5090478 32.9913455 -37.31365686 24.12495103 -30.5625 14.8125 C-28.01918259 11.63187799 -25.86176748 10.2916718 -22 9 C-22 8.34 -22 7.68 -22 7 C-14.83955755 2.5649269 -8.48739159 0 0 0 Z " fill="#C65D41" transform="translate(427,229)"/>
<path d="M0 0 C5.27315333 0.4452885 10.01770224 1.08373163 15 3 C15 3.66 15 4.32 15 5 C15.66 5.04125 16.32 5.0825 17 5.125 C24.55736949 7.32923277 30.0194575 13.42069568 34 20 C38.10600425 27.77519954 38.34195035 40.60476786 36.5625 49.08496094 C34.35284122 55.71757159 29.64761036 61.8937956 24 66 C20.5625 67.4375 20.5625 67.4375 18 68 C18 68.66 18 69.32 18 70 C6.89310789 74.17493108 -2.93377334 75.34318154 -14.0625 70.375 C-23.64748469 65.10809932 -30.11090037 57.23764134 -34.13671875 47.15234375 C-36.40707191 38.86195912 -36.21824589 29.50818682 -32.140625 21.85546875 C-30.49156019 19.17291469 -28.85343797 16.54847721 -27 14 C-26.46375 13.175 -25.9275 12.35 -25.375 11.5 C-19.79678033 5.62818982 -12.87042054 2.45748529 -5 1 C-1.56796455 6.52110051 -1.39338378 11.54850593 -1 18 C-4.63 16.68 -8.26 15.36 -12 14 C-11.67 15.32 -11.34 16.64 -11 18 C-4.2986344 21.47478216 2.84354743 22.25059834 10.22265625 20.4609375 C12.36133502 19.72961588 12.36133502 19.72961588 15 18 C15.71600638 15.9506055 15.71600638 15.9506055 16 14 C15.39671875 14.28875 14.7934375 14.5775 14.171875 14.875 C12.97304687 15.431875 12.97304687 15.431875 11.75 16 C10.96109375 16.37125 10.1721875 16.7425 9.359375 17.125 C7 18 7 18 3 18 C2.49645133 15.56318413 1.99703244 13.12564561 1.5 10.6875 C1.35691406 9.99720703 1.21382812 9.30691406 1.06640625 8.59570312 C0.47374956 5.67475227 0 2.98891878 0 0 Z " fill="#C65D41" transform="translate(73,235)"/>
<path d="M0 0 C0.55399004 11.07980087 0.57330489 20.030849 -5 30 C-5.61875 31.27423828 -5.61875 31.27423828 -6.25 32.57421875 C-8.53456382 35.74099136 -11.28217412 37.26587101 -14.6875 39 C-15.34234375 39.3403125 -15.9971875 39.680625 -16.671875 40.03125 C-21.48337426 42.44156462 -26.37515517 44.36642928 -31.5 46 C-32.14541748 46.20753906 -32.79083496 46.41507812 -33.45581055 46.62890625 C-37.72481305 47.89199661 -41.56466713 48.18290032 -46 48 C-46.6619788 34.06902387 -46.10921796 22.95729189 -38 11 C-37.34 11 -36.68 11 -36 11 C-36 10.34 -36 9.68 -36 9 C-24.87503054 -0.44175895 -13.86306135 -0.40377849 0 0 Z " fill="#E4D1CD" transform="translate(355,267)"/>
<path d="M0 0 C10.01454253 8.09686417 15.48044795 16.57008379 16.9375 29.375 C17.00193283 32.7095585 16.98500512 36.0403032 16.9375 39.375 C-8.39834297 33.41550385 -8.39834297 33.41550385 -17.0625 27.375 C-17.8771875 26.86453125 -18.691875 26.3540625 -19.53125 25.828125 C-27.05200527 20.70033732 -30.08970692 14.3823244 -31.8046875 5.5546875 C-32.30467511 2.16436058 -32.72893468 -1.21466803 -33.0625 -4.625 C-20.42645001 -6.58001151 -11.29489736 -5.99321084 0 0 Z " fill="#E5D2CE" transform="translate(176.0625,278.625)"/>
<path d="M0 0 C2.54732334 1.0538926 3.90650716 2.12687483 6 4 C6 4.66 6 5.32 6 6 C6.66 6 7.32 6 8 6 C8.2475 5.38125 8.495 4.7625 8.75 4.125 C10.26571097 1.54829135 11.25124088 1.09276413 14 0 C18.54388959 -0.56890975 22.69990386 -0.48753605 27 1.125 C29.68924612 3.64616824 30.31605985 5.37511722 31 9 C30.77423911 15.99858757 29.00925376 21.729072 24.203125 26.953125 C18.89943744 31.84567399 14.35132143 34.62763095 7.0625 35.4375 C-0.16100179 35.10346524 -6.06194804 30.8178172 -11.23046875 26.046875 C-15.44906949 21.16708077 -17.41287431 15.56160466 -17 9.125 C-16.3498961 5.33161025 -15.18300683 3.31491406 -12 1 C-8.29426829 -0.85286586 -4.04408469 -0.46377118 0 0 Z " fill="#AC7374" transform="translate(249,352)"/>
<path d="M0 0 C3.58479637 1.37290074 4.90056832 2.91291542 6.9375 6.125 C6.9375 6.785 6.9375 7.445 6.9375 8.125 C9.5775 8.125 12.2175 8.125 14.9375 8.125 C15.185 7.361875 15.4325 6.59875 15.6875 5.8125 C17.08466768 2.80858949 18.00193741 1.63471791 20.9375 0.125 C24.44360679 0.3815444 25.9653901 1.1435934 28.9375 3.125 C30.02185374 5.59607536 30.08122334 6.71329251 29.1875 9.2734375 C25.14574352 16.47281622 19.97872786 22.38756073 11.9375 25.125 C5.37566926 24.12646054 0.07076502 19.31440358 -4.4375 14.6875 C-6.44369865 11.52387905 -7.20647776 8.76309453 -8.0625 5.125 C-3.94606517 0.16106388 -3.94606517 0.16106388 0 0 Z " fill="#D6ADAD" transform="translate(245.0625,356.875)"/>
<path d="M0 0 C3.50799659 1.31471986 6.5999748 2.89510307 9.8125 4.8125 C15.21542208 7.8345983 20.66529393 9.63908309 26.60473633 11.26293945 C33.02802658 13.07552621 33.02802658 13.07552621 35 16 C35.08647993 19.97807682 34.30666368 21.63370728 31.75 24.6875 C26.29550523 28.77837108 18.25257739 30.41030219 11.59375 29.5703125 C10.7378125 29.38210937 9.881875 29.19390625 9 29 C8.83395264 28.3702124 8.66790527 27.7404248 8.49682617 27.09155273 C7.73253624 24.20538398 6.9600867 21.3214584 6.1875 18.4375 C5.92646484 17.44685547 5.66542969 16.45621094 5.39648438 15.43554688 C3.95242344 10.06934512 2.352578 5.03720155 0 0 Z " fill="#E8D3D0" transform="translate(392,163)"/>
<path d="M0 0 C0.33 0.66 0.66 1.32 1 2 C0.109375 4.109375 0.109375 4.109375 -1.25 6.75 C-4.36278006 13.27903451 -5.72758819 19.91380414 -7 27 C-15.25764702 25.96948904 -21.84173004 25.02832403 -28 19.0625 C-29 17 -29 17 -28.9375 14.4375 C-27.75696639 11.36811262 -26.79430871 10.72788171 -24 9 C-21.41626249 8.10799538 -18.87454801 7.30565702 -16.25 6.5625 C-10.48808901 4.85697956 -5.26106893 2.95935128 0 0 Z " fill="#E8D3D0" transform="translate(106,161)"/>
<path d="M0 0 C0.72445312 -0.01224609 1.44890625 -0.02449219 2.1953125 -0.03710938 C6.00700298 -0.04765833 7.7536304 0.0232536 11 2.1875 C12.02695754 8.57745804 10.35240165 12.77616429 6.8515625 18.16015625 C4.8369409 20.36603939 3.78350485 21.03417608 0.875 21.5625 C-3 21.1875 -3 21.1875 -5.25 19.75 C-9.56074685 13.43783496 -11.55227587 8.91936219 -11 1.1875 C-7.30054001 -0.04565333 -3.85232442 0.00342733 0 0 Z " fill="#AC7374" transform="translate(254,307.8125)"/>
<path d="M0 0 C1.65 0 3.3 0 5 0 C5 3.3 5 6.6 5 10 C6.98 9.67 8.96 9.34 11 9 C11.042721 10.66611905 11.04063832 12.33382885 11 14 C10.67 14.33 10.34 14.66 10 15 C11.32 15.66 12.64 16.32 14 17 C14 18.32 14 19.64 14 21 C11.36 21 8.72 21 6 21 C5.67 25.29 5.34 29.58 5 34 C3.35 34 1.7 34 0 34 C0 30.7 0 27.4 0 24 C-0.33 24.33 -0.66 24.66 -1 25 C-2.66617115 25.04063832 -4.33388095 25.042721 -6 25 C-6.20086443 21.28400809 -6.1519437 20.22791555 -4 17 C-4.33 16.67 -4.66 16.34 -5 16 C-5.04063832 14.33382885 -5.042721 12.66611905 -5 11 C-3.35 11 -1.7 11 0 11 C0 7.37 0 3.74 0 0 Z " fill="#E9D279" transform="translate(376,196)"/>
<path d="M0 0 C1.74991334 -0.02715383 3.49994945 -0.04646551 5.25 -0.0625 C6.71179688 -0.07990234 6.71179688 -0.07990234 8.203125 -0.09765625 C10.65758678 -0.01195577 12.66168914 0.29293934 15 1 C15.10841951 2.91541138 15.18578079 4.83259773 15.25 6.75 C15.29640625 7.81734375 15.3428125 8.8846875 15.390625 9.984375 C15 13 15 13 13.3359375 15.37109375 C10.44845664 17.38460465 8.8621379 17.44878976 5.375 17.3125 C4.41335938 17.28800781 3.45171875 17.26351563 2.4609375 17.23828125 C0 17 0 17 -2 16 C-2.05423638 14.08364783 -2.09289963 12.16685075 -2.125 10.25 C-2.14820313 9.18265625 -2.17140625 8.1153125 -2.1953125 7.015625 C-2.00487687 4.07529894 -1.52670104 2.47638122 0 0 Z " fill="#FFFFFE" transform="translate(399,254)"/>
<path d="M0 0 C11.625 -0.125 11.625 -0.125 15 1 C15.10815225 2.76949095 15.18566083 4.54087487 15.25 6.3125 C15.29640625 7.29863281 15.3428125 8.28476562 15.390625 9.30078125 C15 12 15 12 13.34375 13.84375 C9.05103544 15.96148918 4.70548551 15.16805305 0 15 C0 10.05 0 5.1 0 0 Z " fill="#FFFFFE" transform="translate(48,260)"/>
<path d="M0 0 C2.82878922 2.29028118 3.60839181 4.97947161 4.703125 8.37890625 C4.32217262 12.75985863 4.32217262 12.75985863 2.703125 14.37890625 C-5.9886356 15.51880928 -11.16889302 12.10677247 -18.296875 7.37890625 C-15.23317355 5.33643862 -12.17061142 3.73754324 -8.859375 2.12890625 C-7.72628906 1.566875 -6.59320313 1.00484375 -5.42578125 0.42578125 C-2.296875 -0.62109375 -2.296875 -0.62109375 0 0 Z " fill="#E8D3D0" transform="translate(330.296875,402.62109375)"/>
<path d="M0 0 C5.94 2.31 11.88 4.62 18 7 C7.39764111 15.48188711 7.39764111 15.48188711 -1.08203125 15.3359375 C-3 15 -3 15 -5 13 C-4.7707868 7.04045689 -3.52403025 5.28604537 0 0 Z " fill="#E8D3D0" transform="translate(175,401)"/>
<path d="M0 0 C1.65 0 3.3 0 5 0 C4.67 2.64 4.34 5.28 4 8 C8.455 7.505 8.455 7.505 13 7 C13 8.65 13 10.3 13 12 C10.36 12.33 7.72 12.66 5 13 C5.33 16.3 5.66 19.6 6 23 C4.35 23 2.7 23 1 23 C0.67 20.36 0.34 17.72 0 15 C-2.31 15 -4.62 15 -7 15 C-7 13.35 -7 11.7 -7 10 C-5.02 9.67 -3.04 9.34 -1 9 C-1.020625 7.88625 -1.04125 6.7725 -1.0625 5.625 C-1 2 -1 2 0 0 Z " fill="#E9D279" transform="translate(132,170)"/>
<path d="M0 0 C5.625 -0.25 5.625 -0.25 9 2 C9.3984375 4.27734375 9.3984375 4.27734375 9.375 6.9375 C9.38273438 7.81277344 9.39046875 8.68804687 9.3984375 9.58984375 C9 12 9 12 7.73046875 13.796875 C4.57868818 15.98818068 1.74275296 15.29704389 -2 15 C-4 13 -4 13 -4.1953125 10.6171875 C-4.17210937 9.71226562 -4.14890625 8.80734375 -4.125 7.875 C-4.10695312 6.96492187 -4.08890625 6.05484375 -4.0703125 5.1171875 C-4.04710937 4.41851562 -4.02390625 3.71984375 -4 3 C-2.68 2.67 -1.36 2.34 0 2 C0 1.34 0 0.68 0 0 Z " fill="#E9D37E" transform="translate(152,149)"/>
<path d="M0 0 C3.59459922 1.19819974 3.86607696 2.02822456 5.75 5.1875 C10.74600777 12.92087811 16.47875265 16.71516542 25 20 C24.47731534 22.76276177 23.89130413 25.3260876 23 28 C22.34 28 21.68 28 21 28 C21.33 26.68 21.66 25.36 22 24 C19.83321603 22.90398107 17.65869122 21.841142 15.45703125 20.81640625 C14.58433594 20.40261719 13.71164062 19.98882812 12.8125 19.5625 C11.93207031 19.15128906 11.05164063 18.74007813 10.14453125 18.31640625 C8 17 8 17 7 14 C6.01 13.67 5.02 13.34 4 13 C0.33363768 8.60036521 -0.45452339 5.68154235 0 0 Z " fill="#652B23" transform="translate(390,280)"/>
<path d="M0 0 C1.98 0 3.96 0 6 0 C9.09103556 6.68879826 11.53403321 13.35993077 13.3125 20.5 C13.56918457 21.52287109 13.56918457 21.52287109 13.83105469 22.56640625 C14.61431833 25.84276061 15 28.60532873 15 32 C13.68 32 12.36 32 11 32 C10.84442627 31.42145264 10.68885254 30.84290527 10.52856445 30.24682617 C6.38899076 14.70845927 6.38899076 14.70845927 0 0 Z " fill="#AC7374" transform="translate(386,161)"/>
<path d="M0 0 C0 3.9653138 -1.82366439 6.39763805 -3.8125 9.6875 C-8.24596809 17.23773677 -11.01383304 24.44420386 -13 33 C-14.32 33 -15.64 33 -17 33 C-16.03271695 22.960269 -14.3586604 10.95654233 -6.60546875 3.78515625 C-4.45096169 2.34316333 -2.34708642 1.09530699 0 0 Z " fill="#AC7374" transform="translate(116,154)"/>
<path d="M0 0 C0.66 0 1.32 0 2 0 C2.76076248 7.988006 0.89578331 11.78332466 -4 18 C-4.66 18.928125 -5.32 19.85625 -6 20.8125 C-8.44145714 23.48284375 -10.81829373 25.27657577 -14 27 C-16.375 26.75 -16.375 26.75 -18 26 C-17.875 24.25 -17.875 24.25 -17 22 C-15.00715862 20.6559907 -13.00580329 19.32458708 -11 18 C-5.50662104 12.97590467 -2.77907481 6.80012554 0 0 Z " fill="#652B23" transform="translate(110,280)"/>
<path d="M0 0 C3.17264204 3.17264204 2.96248262 6.72538271 3.0625 11.0625 C1.4125 11.0625 -0.2375 11.0625 -1.9375 11.0625 C-2.185 10.258125 -2.4325 9.45375 -2.6875 8.625 C-3.65454757 5.99649754 -3.65454757 5.99649754 -5.625 5.1875 C-8.81798604 5.01490616 -11.79570342 5.51872751 -14.9375 6.0625 C-14.9375 4.4125 -14.9375 2.7625 -14.9375 1.0625 C-10.29663364 -2.0314109 -5.07946639 -1.6211063 0 0 Z " fill="#59372B" transform="translate(306.9375,268.9375)"/>
<path d="M0 0 C0.495 0.33 0.99 0.66 1.5 1 C1.5 2.65 1.5 4.3 1.5 6 C0.88511719 5.89300781 0.27023438 5.78601563 -0.36328125 5.67578125 C-1.57564453 5.49595703 -1.57564453 5.49595703 -2.8125 5.3125 C-4.01326172 5.12107422 -4.01326172 5.12107422 -5.23828125 4.92578125 C-7.5576994 4.78606036 -7.5576994 4.78606036 -9.23046875 6.29296875 C-10.70240015 8.0865457 -10.70240015 8.0865457 -11.5 11 C-13.15 11 -14.8 11 -16.5 11 C-16.3111588 2.8111588 -16.3111588 2.8111588 -13.4375 -0.0625 C-8.83825052 -1.53034558 -4.59154356 -1.83661742 0 0 Z " fill="#59372B" transform="translate(213.5,268)"/>
<path d="M0 0 C4.62125872 1.83368583 9.21635753 3.72952465 13.8125 5.625 C14.99489258 6.11226563 14.99489258 6.11226563 16.20117188 6.609375 C18.13420912 7.40602065 20.06711749 8.20297899 22 9 C21.01 10.485 21.01 10.485 20 12 C12.34167083 11.70544888 6.65738822 8.62827658 0 5 C0 3.35 0 1.7 0 0 Z " fill="#AC7374" transform="translate(175,396)"/>
<path d="M0 0 C0 1.65 0 3.3 0 5 C-2.08129104 5.98350025 -4.16511359 6.96164458 -6.25 7.9375 C-7.41015625 8.48277344 -8.5703125 9.02804687 -9.765625 9.58984375 C-14.9879397 11.8667225 -14.9879397 11.8667225 -17 12 C-19.25 10.5625 -19.25 10.5625 -21 9 C-20.13117188 8.60167969 -19.26234375 8.20335937 -18.3671875 7.79296875 C-17.21476562 7.26316406 -16.06234375 6.73335938 -14.875 6.1875 C-13.73804688 5.66542969 -12.60109375 5.14335937 -11.4296875 4.60546875 C-9.16502485 3.54535901 -6.91907349 2.44420445 -4.6953125 1.30078125 C-2 0 -2 0 0 0 Z " fill="#AC7374" transform="translate(328,398)"/>
<path d="M0 0 C3.96 0 7.92 0 12 0 C10.68 2.97 9.36 5.94 8 9 C6.68 9 5.36 9 4 9 C3.3309224 7.68872739 2.66480194 6.3759455 2 5.0625 C1.62875 4.33160156 1.2575 3.60070312 0.875 2.84765625 C0 1 0 1 0 0 Z " fill="#D6ADAD" transform="translate(248,313)"/>
<path d="M0 0 C1.98 0 3.96 0 6 0 C6 1.65 6 3.3 6 5 C4.02 5 2.04 5 0 5 C0 3.35 0 1.7 0 0 Z " fill="#E9D279" transform="translate(364,185)"/>
</svg>
