<?xml version="1.0" encoding="UTF-8"?>
<svg version="1.1" xmlns="http://www.w3.org/2000/svg" viewBox="0 0 472 472">
<path d="M0 0 C1.3828125 1.5625 1.3828125 1.5625 2.2109375 3.72265625 C2.59765625 4.32980469 2.984375 4.93695313 3.3828125 5.5625 C6.00885455 6.09224623 6.00885455 6.09224623 9.2578125 6 C48.46064881 7.24994551 84.83196934 19.61397834 112.390625 47.6015625 C114.94428208 50.41186854 116.59245527 52.95094134 118.01953125 56.46875 C120.42900522 61.37666659 123.80723071 63.07175159 128.6328125 65.3125 C129.35855469 65.67214844 130.08429688 66.03179687 130.83203125 66.40234375 C133.73501505 67.83572435 136.6572622 69.22454061 139.59204102 70.59155273 C143.2877795 72.35675135 146.23087463 73.84602343 148.8203125 77.125 C149.29339844 77.70378906 149.76648438 78.28257812 150.25390625 78.87890625 C153.05201098 83.05185829 152.8500612 87.73709523 152.3828125 92.5625 C150.65250112 96.75167491 148.50033898 98.69980945 144.3828125 100.5625 C142.71679224 100.60891405 141.04863856 100.61542758 139.3828125 100.5625 C139.70894531 101.44808594 140.03507812 102.33367187 140.37109375 103.24609375 C148.46662132 126.19536218 150.49158277 150.53797063 146.3828125 174.5625 C146.12564453 176.09003906 146.12564453 176.09003906 145.86328125 177.6484375 C144.20669737 185.62141542 140.30967409 196.63563841 134.3828125 202.5625 C134.1272563 204.0373364 133.90509891 205.51796051 133.6953125 207 C130.5022334 225.11776735 123.53048555 241.70203498 108.6328125 253.0625 C108.00721436 253.54315918 107.38161621 254.02381836 106.73706055 254.51904297 C104.95898704 255.87597567 103.17196608 257.22023438 101.3828125 258.5625 C100.64160156 259.13226563 99.90039062 259.70203125 99.13671875 260.2890625 C65.73192833 284.35126566 6.84347909 301.61412404 -34.55859375 294.92578125 C-37.06812193 294.43464612 -39.55238714 293.88383371 -42.046875 293.31640625 C-49.29217849 291.78648987 -55.156018 291.53806863 -62.4296875 292.5 C-88.11184855 295.44460736 -117.96480412 296.76293998 -139.859375 281.328125 C-144.59573578 278.2957807 -149.04710644 277.82636166 -154.546875 277.26171875 C-162.16702454 276.37419545 -169.18815508 274.70336805 -176.4921875 272.375 C-177.37165039 272.10792236 -178.25111328 271.84084473 -179.15722656 271.56567383 C-188.4730556 268.46186834 -194.37273174 262.44875561 -200.1796875 254.75 C-200.88218628 253.83335571 -200.88218628 253.83335571 -201.59887695 252.89819336 C-202.94855224 251.12707888 -204.28431438 249.3462746 -205.6171875 247.5625 C-206.26945312 246.70398438 -206.92171875 245.84546875 -207.59375 244.9609375 C-219.5336938 228.6593704 -225.79161454 211.6278724 -225.8046875 191.3125 C-225.81693359 190.32636719 -225.82917969 189.34023438 -225.84179688 188.32421875 C-225.85133568 183.49758175 -225.619911 179.05584174 -224.5546875 174.33984375 C-223.52997151 169.7580624 -223.66482241 165.97793064 -224.4296875 161.375 C-224.52572266 160.71564453 -224.62175781 160.05628906 -224.72070312 159.37695312 C-225.16218379 156.36955129 -225.65087833 153.37466208 -226.1875 150.3828125 C-226.81595442 144.7952814 -226.72120299 139.24236493 -226.6796875 133.625 C-226.67517578 132.46419922 -226.67066406 131.30339844 -226.66601562 130.10742188 C-226.65429397 127.25906066 -226.6378851 124.41080778 -226.6171875 121.5625 C-227.28830566 121.43842773 -227.95942383 121.31435547 -228.65087891 121.18652344 C-229.9838501 120.93177246 -229.9838501 120.93177246 -231.34375 120.671875 C-232.22111816 120.50655273 -233.09848633 120.34123047 -234.00244141 120.17089844 C-239.43273337 118.90737952 -243.36046672 116.94489286 -247.1171875 112.8125 C-248.9601124 108.81949605 -249.44948716 105.88005448 -248.6171875 101.5625 C-243.56607298 91.03934475 -230.56089902 86.06800089 -220.81640625 80.86132812 C-212.83612818 76.50450158 -206.30166706 71.83641672 -200.4296875 64.875 C-191.23584276 54.14538888 -180.57528966 45.94435907 -168.6171875 38.5625 C-167.52019531 37.86382812 -166.42320312 37.16515625 -165.29296875 36.4453125 C-153.75002473 29.42392406 -140.14060104 22.86320406 -126.5546875 21.6875 C-120.65449915 21.04699424 -117.82899201 18.6160267 -113.53662109 14.65771484 C-90.48598996 -5.97197264 -25.95303027 -21.41415951 0 0 Z " fill="#F8F4EA" transform="translate(279.6171875,104.4375)"/>
<path d="M0 0 C0.73347656 0.60457031 1.46695313 1.20914063 2.22265625 1.83203125 C18.82949947 14.79517891 44.98397478 15.24458831 65 14 C70.82319727 13.25705221 76.38617487 11.66925504 82 10 C84.45990879 9.30338423 86.92213376 8.61558874 89.38525391 7.93041992 C90.96430515 7.48777098 92.54098759 7.03655236 94.11474609 6.57543945 C97.58525335 5.57313683 100.35521929 5 104 5 C105.09667777 6.16522013 106.19205262 7.33169077 107.28125 8.50390625 C123.44085081 22.57010423 148.87173013 22.29121752 169 23 C169 23.99 169 24.98 169 26 C165.46994485 27.09016409 162.18121037 27.13344314 158.5 27.125 C157.3759375 27.12757813 156.251875 27.13015625 155.09375 27.1328125 C152.5279301 27.02266367 150.43733573 26.75270662 148 26 C148.03480469 26.93199219 148.06960938 27.86398437 148.10546875 28.82421875 C148.38326891 41.90728324 147.19198032 55.86012269 138.1328125 66.11328125 C118.14520222 84.96606384 87.27567197 94.31764013 60.375 95.55859375 C57.55584771 96.08254804 56.23682591 97.26075373 54 99 C50.375 99.375 50.375 99.375 47 99 C46.34 98.01 45.68 97.02 45 96 C41.82475429 95.3804279 41.82475429 95.3804279 38.02734375 95.2265625 C36.56760107 95.12627126 35.10788531 95.02558752 33.64819336 94.92456055 C32.49527298 94.85221695 32.49527298 94.85221695 31.31906128 94.77841187 C2.13496173 92.89847403 -32.37410501 89.65417366 -53.390625 67.1015625 C-56.85939477 63.14951999 -59.14909258 58.90931158 -61 54 C-61.4125 52.948125 -61.825 51.89625 -62.25 50.8125 C-65.63800547 38.1074795 -63.70403954 27.2530951 -60 15 C-61.19496094 14.85304687 -61.19496094 14.85304687 -62.4140625 14.703125 C-73.78433764 13.09856062 -73.78433764 13.09856062 -78 9 C-78.375 6.25 -78.375 6.25 -78 4 C-76.68 4 -75.36 4 -74 4 C-74 4.99 -74 5.98 -74 7 C-72.31409158 7.48473678 -70.62617455 7.96248926 -68.9375 8.4375 C-67.99777344 8.70433594 -67.05804688 8.97117188 -66.08984375 9.24609375 C-46.10883081 14.12135986 -24.85129217 9.99292661 -6.69921875 0.83984375 C-4.25958174 -0.36595385 -2.68908483 -0.39352461 0 0 Z " fill="#FFFFFE" transform="translate(198,241)"/>
<path d="M0 0 C1.3828125 1.5625 1.3828125 1.5625 2.2109375 3.72265625 C2.59765625 4.32980469 2.984375 4.93695313 3.3828125 5.5625 C6.00885455 6.09224623 6.00885455 6.09224623 9.2578125 6 C48.46064881 7.24994551 84.83196934 19.61397834 112.390625 47.6015625 C114.94428208 50.41186854 116.59245527 52.95094134 118.01953125 56.46875 C120.42900522 61.37666659 123.80723071 63.07175159 128.6328125 65.3125 C129.35855469 65.67214844 130.08429688 66.03179687 130.83203125 66.40234375 C133.73501505 67.83572435 136.6572622 69.22454061 139.59204102 70.59155273 C143.2877795 72.35675135 146.23087463 73.84602343 148.8203125 77.125 C149.29339844 77.70378906 149.76648438 78.28257812 150.25390625 78.87890625 C153.05201098 83.05185829 152.8500612 87.73709523 152.3828125 92.5625 C150.65250112 96.75167491 148.50033898 98.69980945 144.3828125 100.5625 C142.71679224 100.60891405 141.04863856 100.61542758 139.3828125 100.5625 C139.70894531 101.44808594 140.03507812 102.33367187 140.37109375 103.24609375 C148.46662132 126.19536218 150.49158277 150.53797063 146.3828125 174.5625 C146.12564453 176.09003906 146.12564453 176.09003906 145.86328125 177.6484375 C144.20669737 185.62141542 140.30967409 196.63563841 134.3828125 202.5625 C134.1272563 204.0373364 133.90509891 205.51796051 133.6953125 207 C130.5022334 225.11776735 123.53048555 241.70203498 108.6328125 253.0625 C108.00721436 253.54315918 107.38161621 254.02381836 106.73706055 254.51904297 C104.95898704 255.87597567 103.17196608 257.22023438 101.3828125 258.5625 C100.64160156 259.13226563 99.90039062 259.70203125 99.13671875 260.2890625 C65.73192833 284.35126566 6.84347909 301.61412404 -34.55859375 294.92578125 C-37.06812193 294.43464612 -39.55238714 293.88383371 -42.046875 293.31640625 C-49.29217849 291.78648987 -55.156018 291.53806863 -62.4296875 292.5 C-88.11184855 295.44460736 -117.96480412 296.76293998 -139.859375 281.328125 C-144.59573578 278.2957807 -149.04710644 277.82636166 -154.546875 277.26171875 C-162.16702454 276.37419545 -169.18815508 274.70336805 -176.4921875 272.375 C-177.37165039 272.10792236 -178.25111328 271.84084473 -179.15722656 271.56567383 C-188.4730556 268.46186834 -194.37273174 262.44875561 -200.1796875 254.75 C-200.88218628 253.83335571 -200.88218628 253.83335571 -201.59887695 252.89819336 C-202.94855224 251.12707888 -204.28431438 249.3462746 -205.6171875 247.5625 C-206.26945312 246.70398438 -206.92171875 245.84546875 -207.59375 244.9609375 C-219.5336938 228.6593704 -225.79161454 211.6278724 -225.8046875 191.3125 C-225.81693359 190.32636719 -225.82917969 189.34023438 -225.84179688 188.32421875 C-225.85133568 183.49758175 -225.619911 179.05584174 -224.5546875 174.33984375 C-223.52997151 169.7580624 -223.66482241 165.97793064 -224.4296875 161.375 C-224.52572266 160.71564453 -224.62175781 160.05628906 -224.72070312 159.37695312 C-225.16218379 156.36955129 -225.65087833 153.37466208 -226.1875 150.3828125 C-226.81595442 144.7952814 -226.72120299 139.24236493 -226.6796875 133.625 C-226.67517578 132.46419922 -226.67066406 131.30339844 -226.66601562 130.10742188 C-226.65429397 127.25906066 -226.6378851 124.41080778 -226.6171875 121.5625 C-227.28830566 121.43842773 -227.95942383 121.31435547 -228.65087891 121.18652344 C-229.9838501 120.93177246 -229.9838501 120.93177246 -231.34375 120.671875 C-232.22111816 120.50655273 -233.09848633 120.34123047 -234.00244141 120.17089844 C-239.43273337 118.90737952 -243.36046672 116.94489286 -247.1171875 112.8125 C-248.9601124 108.81949605 -249.44948716 105.88005448 -248.6171875 101.5625 C-243.56607298 91.03934475 -230.56089902 86.06800089 -220.81640625 80.86132812 C-212.83612818 76.50450158 -206.30166706 71.83641672 -200.4296875 64.875 C-191.23584276 54.14538888 -180.57528966 45.94435907 -168.6171875 38.5625 C-167.52019531 37.86382812 -166.42320312 37.16515625 -165.29296875 36.4453125 C-153.75002473 29.42392406 -140.14060104 22.86320406 -126.5546875 21.6875 C-120.65449915 21.04699424 -117.82899201 18.6160267 -113.53662109 14.65771484 C-90.48598996 -5.97197264 -25.95303027 -21.41415951 0 0 Z M-110.2578125 17.97265625 C-111.07765625 18.78605469 -111.8975 19.59945312 -112.7421875 20.4375 C-117.07120318 24.55872293 -119.60466329 25.2066898 -125.453125 25.2890625 C-152.80113704 27.65247095 -178.93130897 50.28541846 -197.6171875 68.3125 C-198.3390625 69.00859375 -199.0609375 69.7046875 -199.8046875 70.421875 C-201.76256532 72.47837453 -201.76256532 72.47837453 -202.5546875 75.203125 C-203.6171875 77.5625 -203.6171875 77.5625 -205.78125 78.65234375 C-207.18503906 79.10287109 -207.18503906 79.10287109 -208.6171875 79.5625 C-216.85570946 83.43999848 -224.94165545 87.59335787 -232.8046875 92.1875 C-233.41554199 92.53498291 -234.02639648 92.88246582 -234.65576172 93.24047852 C-238.98189648 95.82616579 -241.68905048 98.53968192 -244.6171875 102.5625 C-245.6171875 105.5625 -245.6171875 105.5625 -244.6171875 108.5625 C-239.96064879 115.08489916 -232.02831504 116.80041373 -224.6171875 118.5625 C-223.9571875 118.5625 -223.2971875 118.5625 -222.6171875 118.5625 C-222.73578125 119.78839844 -222.854375 121.01429688 -222.9765625 122.27734375 C-224.00079284 135.03195756 -222.86502679 146.58794905 -220.52734375 159.1484375 C-219.25512269 166.24284111 -219.58567479 172.02882954 -221.1796875 179.0625 C-225.36004428 199.64327083 -218.61176749 218.84796252 -207.96484375 236.265625 C-206.26534297 238.77540122 -204.47880745 241.16999983 -202.6171875 243.5625 C-202.15731445 244.15482422 -201.69744141 244.74714844 -201.22363281 245.35742188 C-191.81133366 257.43245028 -184.4979349 266.02480167 -169.3046875 270.125 C-168.53415039 270.3405957 -167.76361328 270.55619141 -166.96972656 270.77832031 C-162.0886891 272.08479098 -157.29648911 272.92198818 -152.28344727 273.52099609 C-143.9825864 274.52243369 -138.4665564 276.29055549 -131.69580078 281.21582031 C-118.9836981 290.27724874 -102.15254553 289.76267216 -87.1796875 289.75 C-86.41940247 289.75105743 -85.65911743 289.75211487 -84.87579346 289.75320435 C-75.12191169 289.75719751 -65.56247781 289.51614269 -55.921875 287.90234375 C-49.92952133 287.2861088 -44.45801633 288.51947776 -38.6796875 290.125 C-9.51227914 296.89183874 27.35368017 287.77264647 54.3828125 276.5625 C55.40052734 276.15193359 56.41824219 275.74136719 57.46679688 275.31835938 C75.6680991 267.97548317 92.55348717 260.67077486 107.3828125 247.5625 C108.18332031 246.92828125 108.98382813 246.2940625 109.80859375 245.640625 C122.47367915 235.33826982 127.87345252 218.72697891 130.3828125 203 C131.17511207 198.33513417 133.34756169 194.99321052 135.86328125 191.0390625 C148.16940104 170.9823017 146.40561999 142.64407612 141.3828125 120.5625 C139.54869981 113.71514597 137.04534616 107.1268111 134.3828125 100.5625 C135.27033203 100.21638672 135.27033203 100.21638672 136.17578125 99.86328125 C141.12391323 97.82106691 145.16464201 96.0264139 148.3828125 91.5625 C149.03459686 87.57937333 148.68026287 85.27638088 147.1328125 81.5625 C142.77361432 75.85149472 135.13820006 72.40700522 128.47265625 70.20703125 C118.32934523 66.83880401 118.32934523 66.83880401 115.30859375 62.765625 C114.32675338 60.69370989 113.40784399 58.59063625 112.55859375 56.4609375 C109.64624039 49.28164783 103.2495886 44.35986376 97.3828125 39.5625 C96.55394531 38.86125 95.72507812 38.16 94.87109375 37.4375 C75.03291925 21.50055647 49.93574124 15.84561012 25.3828125 11.5625 C24.70573242 11.44390625 24.02865234 11.3253125 23.33105469 11.203125 C15.63552213 9.89125339 8.18636039 9.27583906 0.3828125 9.5625 C0.11597656 8.79164062 -0.15085937 8.02078125 -0.42578125 7.2265625 C-2.68563953 2.1733712 -7.47065114 -0.18463935 -12.4921875 -2.125 C-41.15784153 -10.55037804 -87.87607566 -2.45564498 -110.2578125 17.97265625 Z " fill="#121110" transform="translate(279.6171875,104.4375)"/>
<path d="M0 0 C0.73347656 0.60457031 1.46695313 1.20914063 2.22265625 1.83203125 C18.82949947 14.79517891 44.98397478 15.24458831 65 14 C70.82319727 13.25705221 76.38617487 11.66925504 82 10 C84.45990879 9.30338423 86.92213376 8.61558874 89.38525391 7.93041992 C90.96430515 7.48777098 92.54098759 7.03655236 94.11474609 6.57543945 C97.58525335 5.57313683 100.35521929 5 104 5 C105.09667777 6.16522013 106.19205262 7.33169077 107.28125 8.50390625 C123.44085081 22.57010423 148.87173013 22.29121752 169 23 C169 23.99 169 24.98 169 26 C165.46994485 27.09016409 162.18121037 27.13344314 158.5 27.125 C157.3759375 27.12757813 156.251875 27.13015625 155.09375 27.1328125 C152.5279301 27.02266367 150.43733573 26.75270662 148 26 C148.03480469 26.93199219 148.06960938 27.86398437 148.10546875 28.82421875 C148.38326891 41.90728324 147.19198032 55.86012269 138.1328125 66.11328125 C118.14520222 84.96606384 87.27567197 94.31764013 60.375 95.55859375 C57.55584771 96.08254804 56.23682591 97.26075373 54 99 C50.375 99.375 50.375 99.375 47 99 C46.34 98.01 45.68 97.02 45 96 C41.82475429 95.3804279 41.82475429 95.3804279 38.02734375 95.2265625 C36.56760107 95.12627126 35.10788531 95.02558752 33.64819336 94.92456055 C32.49527298 94.85221695 32.49527298 94.85221695 31.31906128 94.77841187 C2.13496173 92.89847403 -32.37410501 89.65417366 -53.390625 67.1015625 C-56.85939477 63.14951999 -59.14909258 58.90931158 -61 54 C-61.4125 52.948125 -61.825 51.89625 -62.25 50.8125 C-65.63800547 38.1074795 -63.70403954 27.2530951 -60 15 C-61.19496094 14.85304687 -61.19496094 14.85304687 -62.4140625 14.703125 C-73.78433764 13.09856062 -73.78433764 13.09856062 -78 9 C-78.375 6.25 -78.375 6.25 -78 4 C-76.68 4 -75.36 4 -74 4 C-74 4.99 -74 5.98 -74 7 C-72.31409158 7.48473678 -70.62617455 7.96248926 -68.9375 8.4375 C-67.99777344 8.70433594 -67.05804688 8.97117188 -66.08984375 9.24609375 C-46.10883081 14.12135986 -24.85129217 9.99292661 -6.69921875 0.83984375 C-4.25958174 -0.36595385 -2.68908483 -0.39352461 0 0 Z M-11.875 7.8125 C-26.13514098 13.63153827 -39.73001941 14.62786233 -55 15 C-55.64836042 16.74906531 -56.29358784 18.49929219 -56.9375 20.25 C-57.29714844 21.22453125 -57.65679687 22.1990625 -58.02734375 23.203125 C-61.77954524 33.99258791 -60.44340104 44.56826156 -56 55 C-54.24956264 57.93018419 -52.25107992 60.44329043 -50 63 C-49.21625 64.03125 -48.4325 65.0625 -47.625 66.125 C-30.22590458 85.18115212 3.65096377 89.29508969 28 91 C30.87747832 91.0955154 33.74644697 91.09800397 36.625 91.0625 C37.34300781 91.05798828 38.06101562 91.05347656 38.80078125 91.04882812 C40.53389208 91.03727405 42.2669587 91.01935158 44 91 C44 89.02 44 87.04 44 85 C48.95 85 53.9 85 59 85 C59 86.98 59 88.96 59 91 C66.40556788 91.31820405 73.09960861 90.45676147 80.3125 88.8125 C81.32578369 88.58473877 82.33906738 88.35697754 83.38305664 88.12231445 C90.89769333 86.37538272 97.98246021 84.24362356 105 81 C105.62422852 80.71785645 106.24845703 80.43571289 106.89160156 80.14501953 C120.62827648 73.88027329 135.69749904 66.2160626 141.3125 51.375 C143.40860697 45.20165542 144.14354037 39.70189924 144.0625 33.1875 C144.05573242 32.14819336 144.05573242 32.14819336 144.04882812 31.08789062 C144.03713156 29.39188932 144.01919924 27.69593297 144 26 C142.80246094 25.78085937 141.60492188 25.56171875 140.37109375 25.3359375 C126.98596507 22.77271022 114.70200478 19.21914723 103 12 C102.67 11.34 102.34 10.68 102 10 C95.41269859 10.62144353 89.34716692 12.16675833 83 14 C58.22390741 21.15603764 27.56027945 20.48003133 4.1875 8.56640625 C2.68430223 7.71603956 1.19572574 6.83839315 -0.265625 5.91796875 C-4.37573072 3.74257496 -7.99814433 6.15321943 -11.875 7.8125 Z " fill="#DFCFB4" transform="translate(198,241)"/>
<path d="M0 0 C-1.05662418 3.16987255 -2.22604541 5.28713876 -4.3125 7.9375 C-10.75182998 16.69422897 -12.86460208 28.54870286 -15 39 C-23.22710528 37.850625 -29.80919414 36.1431044 -36.5 31.125 C-38 29 -38 29 -38.5625 26.125 C-37.71995851 21.44421394 -34.97392969 18.45125153 -31.22143555 15.69238281 C-29.19930716 14.41857706 -27.14866006 13.2284131 -25.0625 12.0625 C-24.3212085 11.63791504 -23.57991699 11.21333008 -22.81616211 10.77587891 C-3.80910393 0 -3.80910393 0 0 0 Z " fill="#E8D3D0" transform="translate(73,184)"/>
<path d="M0 0 C5.32245509 0.55719452 9.32351698 2.39074986 14 4.8125 C14.68578125 5.15603516 15.3715625 5.49957031 16.078125 5.85351562 C28.57623872 12.20990362 28.57623872 12.20990362 31 18 C31.60785955 22.25501687 31.59892766 24.16922937 29.0625 27.6875 C25.14046822 30.6490342 20.08616988 34 15 34 C14.32904297 32.57107422 14.32904297 32.57107422 13.64453125 31.11328125 C13.0344022 29.84609015 12.42369415 28.57917772 11.8125 27.3125 C11.37454102 26.37374023 11.37454102 26.37374023 10.92773438 25.41601562 C9.33791488 22.15090247 8.01334188 20.01308378 5.375 17.42578125 C2.60653351 14.59812057 2.00853449 12.70649431 1.1875 8.875 C0.95417969 7.84117187 0.72085937 6.80734375 0.48046875 5.7421875 C0 3 0 3 0 0 Z " fill="#E8D3D0" transform="translate(397,171)"/>
<path d="M0 0 C3.20831391 -0.0292483 6.41659307 -0.04688189 9.625 -0.0625 C10.98044922 -0.07506836 10.98044922 -0.07506836 12.36328125 -0.08789062 C17.02904289 -0.10491895 21.41013285 0.03170577 26 1 C26.02685095 3.47923801 26.04676547 5.9581884 26.0625 8.4375 C26.07087891 9.14455078 26.07925781 9.85160156 26.08789062 10.58007812 C26.09653588 12.38693559 26.05220011 14.19387603 26 16 C25.67 16.33 25.34 16.66 25 17 C19.9895824 16.85940155 14.99594294 16.39586709 10 16 C9.03449219 15.94972656 8.06898438 15.89945312 7.07421875 15.84765625 C4.6875 15.6875 4.6875 15.6875 1 15 C-0.70805425 12.42436263 -1 11.13898788 -1 8 C-0.01 7.67 0.98 7.34 2 7 C1.34 6.01 0.68 5.02 0 4 C0 2.68 0 1.36 0 0 Z " fill="#131211" transform="translate(282,269)"/>
<path d="M0 0 C0.83595703 0.00451172 1.67191406 0.00902344 2.53320312 0.01367188 C4.58466649 0.02539452 6.63609273 0.04332797 8.6875 0.0625 C8.85624707 1.97898462 9.02241643 3.89569633 9.1875 5.8125 C9.2803125 6.87984375 9.373125 7.9471875 9.46875 9.046875 C9.63802283 11.3804218 9.6875 13.72282182 9.6875 16.0625 C-1.2025 16.5575 -1.2025 16.5575 -12.3125 17.0625 C-12.3125 15.7425 -12.3125 14.4225 -12.3125 13.0625 C-10.3325 12.7325 -8.3525 12.4025 -6.3125 12.0625 C-8.9525 11.7325 -11.5925 11.4025 -14.3125 11.0625 C-14.3125 7.7625 -14.3125 4.4625 -14.3125 1.0625 C-9.54157044 -0.17152862 -4.88780554 -0.05015112 0 0 Z " fill="#131211" transform="translate(206.3125,269.9375)"/>
<path d="M0 0 C3.58028103 1.22347733 5.38605555 3.03904347 7.4375 6.25 C8.51873207 11.53602346 8.00439354 15.44481 5.0625 20 C1.27303315 22.47475386 -1.29101015 22.72324946 -5.75 22.484375 C-8 22 -8 22 -10.125 19.875 C-11.11309902 16.62838895 -11.51232813 14.36672768 -11 11 C-9.3125 9.0625 -9.3125 9.0625 -7 8 C-4.25 8.3125 -4.25 8.3125 -2 9 C-2 9.99 -2 10.98 -2 12 C-3.32 12.33 -4.64 12.66 -6 13 C-5.67 14.32 -5.34 15.64 -5 17 C-3.68 17.33 -2.36 17.66 -1 18 C2.16655599 14.72804541 2.16655599 14.72804541 3.125 10.4375 C1.48418108 6.88239234 -0.5490735 5.75801916 -4 4 C-7.04308291 3.24984805 -7.04308291 3.24984805 -10 4 C-13.71819473 6.72667613 -14.84499731 8.27267969 -15.8125 12.8125 C-15.874375 13.864375 -15.93625 14.91625 -16 16 C-17.9375 16.5625 -17.9375 16.5625 -20 17 C-21 16 -21 16 -21.08984375 14.1796875 C-20.749777 9.03508788 -19.83863234 5.05729782 -16.20703125 1.2578125 C-11.26431894 -1.55909611 -5.44304193 -0.81258683 0 0 Z " fill="#DDB3B1" transform="translate(193,297)"/>
<path d="M0 0 C4.95 0 9.9 0 15 0 C15.60464169 8.1021987 15.60464169 8.1021987 12.9375 12.0625 C9.27216923 14.48005859 7.30993929 14.71832321 3 14 C0.81994827 11.80992505 0.05796038 10.51005135 -0.29296875 7.421875 C-0.1953125 4.94791667 -0.09765625 2.47395833 0 0 Z " fill="#DEB9B7" transform="translate(242,326)"/>
<path d="M0 0 C-1.05662418 3.16987255 -2.22604541 5.28713876 -4.3125 7.9375 C-10.75182998 16.69422897 -12.86460208 28.54870286 -15 39 C-16.32 38.67 -17.64 38.34 -19 38 C-18.17504654 26.03817488 -15.31241348 11.01881285 -6.3125 2.4375 C-2.39130435 0 -2.39130435 0 0 0 Z " fill="#DFCFB4" transform="translate(73,184)"/>
<path d="M0 0 C2.475 0.495 2.475 0.495 5 1 C5.13535156 1.68964844 5.27070313 2.37929687 5.41015625 3.08984375 C6.89077861 9.55315932 8.9462348 13.75182244 13.2109375 18.796875 C15.96286528 22.18571183 18.42436358 25.91319303 20 30 C19.67 30.99 19.34 31.98 19 33 C16.9375 33.6875 16.9375 33.6875 15 34 C14.32904297 32.57107422 14.32904297 32.57107422 13.64453125 31.11328125 C13.0344022 29.84609015 12.42369415 28.57917772 11.8125 27.3125 C11.37454102 26.37374023 11.37454102 26.37374023 10.92773438 25.41601562 C9.33791488 22.15090247 8.01334188 20.01308378 5.375 17.42578125 C2.60653351 14.59812057 2.00853449 12.70649431 1.1875 8.875 C0.95417969 7.84117187 0.72085937 6.80734375 0.48046875 5.7421875 C0 3 0 3 0 0 Z " fill="#DFCFB4" transform="translate(397,171)"/>
<path d="M0 0 C4.95 0 9.9 0 15 0 C15.60464169 8.1021987 15.60464169 8.1021987 12.9375 12.0625 C9.27216923 14.48005859 7.30993929 14.71832321 3 14 C0.81994827 11.80992505 0.05796038 10.51005135 -0.29296875 7.421875 C-0.1953125 4.94791667 -0.09765625 2.47395833 0 0 Z M2 2 C1.79029441 6.14093698 1.79029441 6.14093698 3 10 C3.66 10 4.32 10 5 10 C5 10.66 5 11.32 5 12 C7.91634129 12.2502157 7.91634129 12.2502157 11 12 C13.4294516 8.3558226 13.16179575 6.28758728 13 2 C9.37 2 5.74 2 2 2 Z " fill="#C09698" transform="translate(242,326)"/>
</svg>
